<svg width="60" height="61" viewBox="0 0 60 61" fill="none" xmlns="http://www.w3.org/2000/svg">
<path d="M37 34.3999H34.475C34.3259 34.4 34.1788 34.4338 34.0446 34.4987C33.9104 34.5637 33.7926 34.6581 33.7 34.7749L30.775 38.4249C30.6813 38.5421 30.5625 38.6366 30.4273 38.7016C30.2921 38.7666 30.144 38.8004 29.994 38.8004C29.844 38.8004 29.6959 38.7666 29.5607 38.7016C29.4255 38.6366 29.3067 38.5421 29.213 38.4249L26.288 34.7749C26.1953 34.6579 26.0773 34.5635 25.9429 34.4985C25.8086 34.4336 25.6612 34.3999 25.512 34.3999H23C21.338 34.3999 20 33.0619 20 31.3999V24.3999C20 22.7379 21.338 21.3999 23 21.3999H37C38.663 21.3999 40 22.7379 40 24.3999V31.3999C40 33.0619 38.663 34.3999 37 34.3999Z" stroke="#133E87" stroke-width="1.5" stroke-miterlimit="10" stroke-linejoin="round"/>
</svg>
