<svg width="60" height="61" viewBox="0 0 60 61" fill="none" xmlns="http://www.w3.org/2000/svg">
<path opacity="0.2" d="M39.7191 39.1029C39.2343 39.1884 38.7361 39.1558 38.2665 39.0079C37.797 38.86 37.3701 38.601 37.0219 38.253L32.4161 33.0249H34.8125C35.643 33.0258 36.4635 32.8446 37.2164 32.4941C37.9693 32.1436 38.6361 31.6323 39.17 30.9962C39.7039 30.3601 40.0919 29.6147 40.3065 28.8125C40.5212 28.0103 40.5574 27.1707 40.4125 26.353L42.2019 35.5591C42.3418 36.3582 42.159 37.1801 41.6935 37.8445C41.228 38.5089 40.5179 38.9615 39.7191 39.1029Z" fill="#133E87"/>
<path d="M35.25 28.6499H32.625C32.3929 28.6499 32.1704 28.5577 32.0063 28.3936C31.8422 28.2295 31.75 28.007 31.75 27.7749C31.75 27.5428 31.8422 27.3203 32.0063 27.1562C32.1704 26.9921 32.3929 26.8999 32.625 26.8999H35.25C35.4821 26.8999 35.7046 26.9921 35.8687 27.1562C36.0328 27.3203 36.125 27.5428 36.125 27.7749C36.125 28.007 36.0328 28.2295 35.8687 28.3936C35.7046 28.5577 35.4821 28.6499 35.25 28.6499ZM27.375 26.8999H26.5V26.0249C26.5 25.7928 26.4078 25.5703 26.2437 25.4062C26.0796 25.2421 25.8571 25.1499 25.625 25.1499C25.3929 25.1499 25.1704 25.2421 25.0063 25.4062C24.8422 25.5703 24.75 25.7928 24.75 26.0249V26.8999H23.875C23.6429 26.8999 23.4204 26.9921 23.2563 27.1562C23.0922 27.3203 23 27.5428 23 27.7749C23 28.007 23.0922 28.2295 23.2563 28.3936C23.4204 28.5577 23.6429 28.6499 23.875 28.6499H24.75V29.5249C24.75 29.757 24.8422 29.9795 25.0063 30.1436C25.1704 30.3077 25.3929 30.3999 25.625 30.3999C25.8571 30.3999 26.0796 30.3077 26.2437 30.1436C26.4078 29.9795 26.5 29.757 26.5 29.5249V28.6499H27.375C27.6071 28.6499 27.8296 28.5577 27.9937 28.3936C28.1578 28.2295 28.25 28.007 28.25 27.7749C28.25 27.5428 28.1578 27.3203 27.9937 27.1562C27.8296 26.9921 27.6071 26.8999 27.375 26.8999ZM42.4119 38.346C42.0821 38.8169 41.6532 39.2099 41.1554 39.4973C40.6575 39.7848 40.1027 39.9597 39.53 40.0099C38.9573 40.06 38.3806 39.9841 37.8403 39.7876C37.3001 39.591 36.8094 39.2785 36.4028 38.8721C36.3897 38.859 36.3766 38.8458 36.3645 38.8316L32.0213 33.8999H27.9744L23.6355 38.8316L23.5972 38.8721C22.858 39.6096 21.8567 40.0242 20.8125 40.0249C20.2377 40.0247 19.6699 39.8986 19.1489 39.6555C18.628 39.4125 18.1667 39.0583 17.7972 38.6179C17.4278 38.1775 17.1593 37.6615 17.0106 37.1063C16.8618 36.551 16.8365 35.9699 16.9363 35.4038C16.9357 35.3987 16.9357 35.3936 16.9363 35.3885L18.7267 26.1912C18.9932 24.6742 19.7858 23.2997 20.9651 22.3091C22.1445 21.3186 23.6353 20.7753 25.1755 20.7749H34.8125C36.348 20.7774 37.8342 21.3175 39.013 22.3015C40.1919 23.2855 40.9888 24.6512 41.2656 26.1616V26.1813L43.0561 35.3874C43.0566 35.3925 43.0566 35.3976 43.0561 35.4027C43.1488 35.9115 43.1395 36.4337 43.029 36.9389C42.9184 37.4441 42.7086 37.9224 42.4119 38.346ZM34.8125 32.1499C36.0889 32.1499 37.3129 31.6429 38.2155 30.7404C39.118 29.8378 39.625 28.6138 39.625 27.3374C39.625 26.061 39.118 24.837 38.2155 23.9345C37.3129 23.0319 36.0889 22.5249 34.8125 22.5249H25.1755C24.0456 22.5259 22.9522 22.9254 22.0878 23.653C21.2233 24.3806 20.6432 25.3897 20.4494 26.5029V26.5171L18.6578 35.7144C18.5786 36.1704 18.6461 36.6397 18.8505 37.055C19.0549 37.4702 19.3858 37.8098 19.7954 38.0251C20.2051 38.2404 20.6725 38.3202 21.1304 38.2531C21.5883 38.1859 22.0131 37.9753 22.3438 37.6515L26.9288 32.4463C27.0109 32.3532 27.1118 32.2786 27.225 32.2275C27.3381 32.1764 27.4609 32.1499 27.585 32.1499H34.8125ZM41.3422 35.7144L40.3863 30.7926C39.7983 31.7419 38.9779 32.5256 38.0025 33.0693C37.0272 33.6131 35.9292 33.899 34.8125 33.8999H34.3531L37.6563 37.6526C37.9053 37.8948 38.2082 38.0745 38.5402 38.177C38.8722 38.2795 39.2237 38.3018 39.5659 38.2421C40.1361 38.1415 40.6431 37.8189 40.9759 37.3451C41.3086 36.8713 41.4399 36.2849 41.3411 35.7144H41.3422Z" fill="#133E87"/>
</svg>
