<svg width="250" height="540" viewBox="0 0 250 540" fill="none" xmlns="http://www.w3.org/2000/svg">
<g clip-path="url(#clip0_564_190)">
<path d="M250 0H0V540H250V0Z" fill="#F3F3E0"/>
<path opacity="0.08" d="M134.071 476.827C137.407 475.913 140.741 474.923 144.074 473.934C155.093 470.663 166.114 468.614 177.154 466.616C184.993 465.197 192.882 464.444 200.715 466.529C207.45 468.321 215.583 471.92 220.784 485.354C223.702 492.889 222.461 502.405 218.171 508.822C213.638 515.602 207.885 515.799 202.873 516.747C155.76 525.658 108.9 513.964 61.7719 514.45C55.1037 514.519 48.3292 515.645 41.6663 516.403C37.6189 516.864 32.3577 518.826 28.3809 515.991C25.8684 514.2 26.0558 507.953 27.9683 504.716C31.4591 498.808 36.7189 498.138 40.6913 497.469C51.081 495.719 61.4667 493.785 71.8477 491.673C92.6097 487.447 113.353 482.498 134.071 476.827Z" fill="black"/>
<path d="M71.2734 355.826L73.2791 357.867L75.2342 356.847L75.5651 357.478L75.1469 358.238L76.9047 358.222L78.007 359.838L77.8796 363.224L76.5725 365.84L74.7053 365.261L72.9765 362.679L70.1633 360.098L71.2734 355.826Z" fill="#EBCEB1"/>
<path d="M72.5161 354.205C69.1995 351.1 65.8829 347.996 62.5663 344.891C60.2329 342.707 57.8995 340.522 55.5661 338.338C54.7968 337.618 53.9831 336.97 53.2408 336.161C51.9005 334.7 51.1927 332.235 49.9391 330.491C48.9511 329.116 47.693 328.228 46.4641 328.58C44.5608 329.126 43.2164 332.566 42.9773 336.041C42.8217 338.301 43.0467 340.553 43.4084 342.713C43.5536 343.581 43.9156 347.005 44.2904 347.593L47.2851 352.298L71.1064 363.595L72.5161 354.205Z" fill="#736357"/>
<path d="M227.625 400.633L223.989 448.174L225.28 482.517L222.632 484.196L220.261 452.461L215.202 394.469L227.625 400.633Z" fill="#EBCEB1"/>
<path d="M222.637 485.165L222.345 488.723L223.009 495.485L225.195 495.109L225.607 485.092L225.285 483.486L222.637 485.165Z" fill="#514943"/>
<path d="M206.198 399.22L207.367 439.541L212.312 495.911L214.992 495.845L213.8 443.581L217.276 395.398L206.198 399.22Z" fill="#EBCEB1"/>
<path d="M212.356 494.947L208.931 499.511L209.358 502.92L215.629 500.204L215.119 495.278L212.356 494.947Z" fill="#514943"/>
<path d="M205.608 405.263L205.719 452.066L208.871 483.624L216.05 481.512L215.841 445.04L218.652 406.529L216.593 398.91L206.209 401.052L205.608 405.263Z" fill="#C7B299"/>
<path d="M218.346 445.729L220.569 478.924L226.812 477.157L227.766 448.592L229.953 410.427L227.625 403.449L216.761 405.285L218.346 445.729Z" fill="#C7B299"/>
<path d="M230.374 319.128C229.896 310.889 224.132 305.835 221.671 314.233C220.932 316.756 220.342 319.509 220.309 322.372C220.276 325.235 220.876 328.229 222.131 329.898C222.138 329.908 222.146 329.915 222.153 329.924C222.015 330.617 221.878 331.31 221.74 332.003C221.71 332.151 221.681 332.317 221.712 332.464C221.748 332.631 221.849 332.711 221.94 332.774C222.386 333.081 222.832 333.388 223.278 333.694C223.499 333.847 223.73 334.002 223.965 333.957C224.48 333.86 224.805 332.872 224.935 331.946C224.966 331.724 224.992 331.498 225.016 331.271C227.946 330.61 230.686 324.514 230.374 319.128Z" fill="#EACDB0"/>
<path d="M221.534 316.692C220.678 318.511 220.511 320.981 220.494 323.295C220.477 325.556 220.159 327.683 220.257 329.954C220.099 330.261 219.828 329.953 219.669 329.651C218.735 327.881 217.814 326.085 216.907 324.267C216.816 324.084 216.722 323.894 216.68 323.658C216.626 323.358 216.662 323.031 216.7 322.723C217.466 316.637 219.169 312.512 221.475 308.186C222.595 306.086 225.276 304.166 226.435 307.369C226.698 308.098 226.739 309.022 226.749 309.901C226.755 310.426 226.752 310.966 226.645 311.453C226.221 313.398 225.192 312.996 224.325 313.415C223.255 313.931 222.256 315.157 221.534 316.692Z" fill="#333333"/>
<path d="M228.909 322.9C228.76 324.673 228.362 326.623 227.928 328.218C227.777 328.771 227.051 329.95 226.999 330.338C226.847 331.462 227.91 334.496 228.161 335.585C230.348 334.114 232.535 332.644 234.722 331.173C234.89 331.06 235.066 330.937 235.179 330.683C235.282 330.452 235.318 330.146 235.349 329.853C235.952 324.088 235.571 318.648 234.798 313.065C234.026 307.485 231.661 302.465 228.42 301.934C225.802 301.505 223.694 304.475 224.232 309.596C224.638 313.462 227.082 314.94 228.236 317.826C228.961 319.638 229.074 321.267 228.909 322.9Z" fill="#333333"/>
<path d="M227.532 334.597C227.582 334.644 227.631 334.691 227.681 334.738C230.034 337.025 231.46 345.049 232.269 349.758C234.358 361.912 234.799 374.151 234.167 386.862C233.826 393.706 233.316 400.521 232.73 407.309C232.567 409.185 230.489 425.822 230.938 426.342C226.33 421.013 221.624 415.893 216.58 412.26C211.535 408.627 206.087 411.842 200.683 412.703C203.737 391.686 207.561 365.139 212.309 345.271C212.877 342.895 213.324 340.323 214.076 338.123C214.941 335.59 216.02 335.043 217.422 333.764C217.903 333.326 218.386 332.885 218.9 332.622C221.605 331.241 225.047 332.271 227.532 334.597Z" fill="#B3C4BD"/>
<path d="M202.889 313.404L202.32 306.911L203.834 306.395L204.764 310.701L205.412 309.852L205.527 315.504L203.997 316.428L202.889 313.404Z" fill="#EBCEB1"/>
<path d="M228.933 354.298C228.914 353.776 228.85 353.225 228.733 352.652C228.251 350.275 227.166 348.415 225.949 347.168C224.023 345.193 221.741 344.307 219.705 342.741C217.376 340.95 215.046 339.159 212.717 337.368L205.842 313.578L202.859 315.693L208.141 347.283C211.296 349.388 214.384 351.422 217.445 353.87C220.188 356.064 222.895 359.453 225.996 359.283C227.747 359.187 229.035 357.171 228.933 354.298Z" fill="#B3C4BD"/>
<path d="M175.371 263.908C173.819 272.185 176.253 281.18 180.807 284C185.361 286.82 190.311 282.396 191.862 274.119C193.414 265.843 190.98 256.847 186.426 254.027C181.872 251.208 176.922 255.631 175.371 263.908ZM180.706 267.211C181.254 264.29 183.001 262.729 184.608 263.724C186.215 264.719 187.074 267.894 186.527 270.815C185.979 273.736 184.232 275.298 182.625 274.303C181.018 273.307 180.159 270.133 180.706 267.211Z" fill="#D1B337"/>
<path d="M156.536 260.783C156.23 264.082 156.112 267.383 156.171 270.642L151.659 273.465L153.132 287.006L157.902 286.494C158.539 289.583 159.343 292.552 160.3 295.356L157.165 301.909L162.166 312.296L166.151 307.524C167.536 309.599 169.046 311.444 170.671 313.018L169.759 321.538L176.948 325.989L179.088 318.23C180.903 318.785 182.719 318.999 184.513 318.892L186.066 327.093L193.516 324.415L193.234 315.747C194.934 314.589 196.568 313.129 198.111 311.389L201.716 317.086L207.432 307.997L204.806 300.754C205.948 298.238 206.963 295.494 207.829 292.541L212.517 294.198L214.966 281.132L210.696 277.243C211.002 273.944 211.12 270.643 211.061 267.384L215.574 264.561L214.1 251.021L209.33 251.533C208.693 248.443 207.89 245.474 206.932 242.671L210.067 236.118L205.066 225.73L201.081 230.502C199.697 228.427 198.187 226.582 196.562 225.008L197.474 216.488L190.285 212.037L188.145 219.797C186.329 219.241 184.514 219.027 182.72 219.134L181.167 210.933L173.716 213.611L173.998 222.28C172.298 223.437 170.664 224.898 169.122 226.638L165.516 220.94L159.801 230.029L162.426 237.272C161.285 239.788 160.27 242.533 159.403 245.485L154.715 243.828L152.266 256.894L156.536 260.783ZM204.225 278.259L190.038 269.475C190.125 265.541 189.103 261.765 187.336 259.488L192.169 233.704C201.602 241.229 206.705 260.086 204.225 278.259ZM183.363 280.684C185.527 280.841 187.605 278.985 188.858 275.773L203.045 284.557C198.905 301.701 188.529 310.975 178.529 306.468L183.363 280.684ZM182.625 274.303C181.018 273.307 180.159 270.133 180.706 267.211C181.254 264.29 183.001 262.729 184.608 263.724C186.215 264.719 187.074 267.894 186.527 270.815C185.979 273.736 184.232 275.298 182.625 274.303ZM163.008 259.768L177.195 268.552C177.109 272.486 178.13 276.261 179.897 278.539L175.064 304.323C165.631 296.798 160.528 277.94 163.008 259.768ZM164.188 253.47C168.329 236.326 178.705 227.052 188.704 231.558L183.87 257.343C181.706 257.185 179.628 259.042 178.375 262.254L164.188 253.47Z" fill="#EFD154"/>
<path d="M160.155 254.488C164.563 230.976 178.673 218.365 191.609 226.375C204.546 234.384 211.485 260.029 207.078 283.54C202.67 307.051 188.56 319.663 175.624 311.653C162.687 303.643 155.748 277.999 160.155 254.488ZM161.144 255.1C156.923 277.62 163.57 302.183 175.961 309.855C188.352 317.527 201.868 305.448 206.089 282.928C210.31 260.407 203.664 235.844 191.272 228.172C178.881 220.499 165.365 232.579 161.144 255.1Z" fill="#C1B23F"/>
<path d="M162.58 263.891C161.329 280.724 166.343 297.366 175.064 304.323L176.771 295.217C177.775 296.802 178.783 298.308 179.791 299.738L178.53 306.469C180.948 307.559 183.388 307.836 185.758 307.397C188.545 310.632 191.221 313.294 193.636 315.454C193.502 315.55 193.37 315.656 193.235 315.748L193.517 324.417L186.066 327.095L184.513 318.894C182.719 319.001 180.904 318.787 179.088 318.231L176.948 325.991L169.759 321.539L170.671 313.02C169.046 311.446 167.536 309.6 166.152 307.526L162.167 312.298L157.166 301.91L160.301 295.357C159.343 292.554 158.54 289.585 157.902 286.495L153.133 287.007L151.659 273.467L156.172 270.644C156.113 267.384 156.23 264.084 156.536 260.784L152.267 256.896L154.716 243.83L157.902 244.956C159.196 251.808 160.783 258.107 162.58 263.891Z" fill="#D1B337"/>
<path d="M160.738 257.499C157.402 279.338 164.008 302.455 175.961 309.856C180.332 312.563 184.844 312.808 189.038 311.007C189.481 311.468 189.918 311.914 190.351 312.346C185.675 314.76 180.564 314.712 175.624 311.653C162.767 303.693 155.836 278.315 160.077 254.923C160.293 255.791 160.513 256.651 160.738 257.499Z" fill="#ADA03B"/>
<path d="M195.618 223.964C195.644 224.126 196.521 217.172 196.521 217.172L190.763 213.67C190.763 213.67 194.543 217.328 195.618 223.964Z" fill="#FAEB7D"/>
<path d="M89.9883 331.257L87.4673 333.555C87.5868 335.288 87.7515 337.02 87.9637 338.747C88.1758 340.474 88.4321 342.169 88.7292 343.831L91.5484 343.962C94.7552 344.112 96.6223 350.608 94.8579 355.477L93.2999 359.777C94.4611 362.569 95.773 365.159 97.2236 367.513L99.7043 365.062C102.522 362.278 105.927 366.208 105.738 372.028L105.572 377.15C107.362 378.535 109.209 379.592 111.093 380.316L112.572 375.925C114.247 370.952 118.276 371.262 119.714 376.473L120.978 381.055C121.932 380.837 122.885 380.538 123.835 380.152C124.785 379.767 125.718 379.301 126.632 378.761L126.705 373.638C126.787 367.809 130.361 364.416 133.041 367.623L135.407 370.454C136.943 368.344 138.368 365.96 139.663 363.323L138.315 358.815C136.783 353.692 138.945 347.506 142.147 347.848L144.966 348.15C145.728 344.898 146.31 341.54 146.708 338.116L144.291 335.428C141.555 332.384 141.726 325.062 144.593 322.448L147.114 320.151C146.995 318.418 146.83 316.685 146.618 314.958C146.406 313.231 146.15 311.536 145.852 309.875L143.033 309.743C139.826 309.594 137.959 303.097 139.724 298.228L141.282 293.929C140.12 291.136 138.808 288.547 137.358 286.192L134.877 288.643C132.059 291.428 128.655 287.498 128.843 281.678L129.009 276.556C127.22 275.171 125.372 274.114 123.488 273.39L122.009 277.781C120.335 282.754 116.305 282.444 114.867 277.233L113.603 272.651C112.65 272.869 111.696 273.168 110.746 273.554C109.796 273.939 108.863 274.404 107.949 274.945L107.877 280.068C107.795 285.897 104.22 289.29 101.541 286.083L99.1751 283.252C97.6388 285.362 96.2139 287.746 94.9184 290.383L96.2669 294.891C97.7989 300.013 95.6368 306.2 92.4345 305.858L89.6158 305.556C88.8538 308.808 88.2722 312.166 87.8741 315.59L90.2903 318.278C93.026 321.321 92.8557 328.644 89.9883 331.257ZM114.9 321.131C114.803 321.266 114.707 321.408 114.616 321.562C114.485 321.78 114.365 322.011 114.255 322.253L102.332 318.991C103.528 311.504 106.4 305.096 110.333 301.533C111.321 300.638 112.51 301.671 112.751 303.63L114.9 321.131ZM127.423 310.548L119.183 320.544C118.845 320.209 118.485 319.97 118.116 319.828L115.967 302.326C115.726 300.365 116.563 298.513 117.668 298.56C121.393 298.719 124.905 301.317 127.614 305.672C128.447 307.01 128.348 309.426 127.423 310.548ZM117.469 322.544C118.778 322.723 119.759 324.797 119.661 327.176C119.563 329.555 118.422 331.339 117.113 331.16C115.803 330.982 114.822 328.908 114.92 326.529C115.018 324.149 116.159 322.365 117.469 322.544ZM121.221 327.614C121.265 326.86 121.244 326.095 121.156 325.349L129.333 315.43C130.238 314.332 131.481 315.033 131.863 316.886C132.116 318.109 132.325 319.378 132.485 320.688C133.223 326.696 132.85 332.682 131.614 337.941C131.167 339.844 129.848 340.453 128.967 339.141L121.221 327.614ZM112.528 349.992L116.883 333.997C117.787 334.166 118.719 333.773 119.506 332.802L127.08 344.075C127.914 345.316 127.912 347.639 127.073 348.871C125.266 351.527 123.103 353.486 120.681 354.468C118.281 355.441 115.887 355.35 113.648 354.368C112.59 353.903 112.045 351.766 112.528 349.992ZM103.704 325.422L113.396 328.073C113.491 329.081 113.705 330.061 114.04 330.939L109.635 347.115C109.142 348.924 107.835 349.419 107 348.086C104.611 344.268 102.842 339.09 102.095 333.015C101.917 331.562 101.804 330.111 101.752 328.67C101.682 326.707 102.633 325.129 103.704 325.422Z" fill="#659993"/>
<g opacity="0.11">
<path d="M97.4659 324.146C98.2872 304.279 107.849 289.33 118.78 290.822C129.711 292.315 137.937 309.692 137.116 329.559C136.295 349.426 126.733 364.375 115.802 362.883C104.87 361.39 96.6447 344.013 97.4659 324.146ZM101.379 324.68C100.719 340.627 107.321 354.574 116.095 355.772C124.869 356.969 132.543 344.971 133.203 329.025C133.862 313.079 127.26 299.131 118.486 297.934C109.712 296.735 102.038 308.734 101.379 324.68Z" fill="black"/>
</g>
<path d="M60.7367 497.957L62.2648 500.55C63.2492 502.221 63.0237 505.251 61.7893 506.231C61.0619 506.808 60.0371 506.719 58.62 504.956L55.3655 498.23L55.8942 496.054L59.2962 495.12L60.7367 497.957Z" fill="#1A1A1A"/>
<path d="M57.5416 383.956L65.1086 440.146L60.1353 496.472L55.4128 496.293L53.6898 446.707C53.6898 446.707 37.3104 392.376 38.2477 391.199C39.1848 390.023 57.5416 383.956 57.5416 383.956Z" fill="#4D4D4D"/>
<path d="M36.0447 497.738L37.0577 501.062C37.7102 503.203 36.981 505.959 35.6407 506.198C34.8507 506.339 33.8912 505.679 32.8427 503.208L30.8896 494.985L31.7621 493.211L35.1569 494.232L36.0447 497.738Z" fill="#1A1A1A"/>
<path d="M52.3706 387.513L50.0234 445.204L35.7251 495.988L31.2637 493.168L38.0477 445.038C38.0477 445.038 31.6973 384.17 32.7884 383.577C33.8798 382.984 52.3706 387.513 52.3706 387.513Z" fill="#4D4D4D"/>
<path d="M154.483 235.354C154.573 233.573 154.596 231.799 154.568 230.051L149.64 227.436L148.51 218.417L152.323 212.171C151.511 208.876 150.489 205.783 149.291 202.939L144.457 206.099L140.62 200.018L141.685 190.878C140.04 189.169 138.273 187.769 136.41 186.753L133.497 194.455L128.428 193.563L126.362 185C124.366 185.379 122.429 186.17 120.583 187.345L120.719 196.684L116.332 201.389L111.895 196.69C110.432 199.082 109.116 201.782 107.985 204.756L111.108 212.155L109.089 220.644L103.979 221.591C103.768 223.393 103.607 225.246 103.513 227.145C103.434 228.879 103.407 230.59 103.425 232.288L108.352 234.93L109.467 243.955L105.632 250.18C106.448 253.478 107.462 256.6 108.659 259.452L113.501 256.32L117.328 262.421L116.242 271.559C117.94 273.327 119.757 274.776 121.678 275.814L124.58 268.09L129.651 268.943L131.726 277.497C133.722 277.102 135.657 276.293 137.502 275.11L137.351 265.773L141.727 261.034L146.171 265.711C147.635 263.301 148.948 260.596 150.072 257.623L146.926 250.245L148.929 241.726L154.044 240.766C154.243 238.992 154.396 237.187 154.483 235.354ZM135.478 248.437C130.262 254.932 123.123 252.554 119.533 243.026C115.966 233.513 117.291 220.558 122.521 214.071C127.734 207.537 134.875 209.955 138.452 219.447C142.051 228.961 140.705 241.939 135.478 248.437Z" fill="#8C314C"/>
<path d="M142.841 214.013C137.605 200.121 127.146 196.559 119.5 206.076C111.86 215.606 109.907 234.582 115.158 248.498C120.394 262.386 130.846 265.93 138.486 256.413C146.132 246.896 148.08 227.899 142.841 214.013ZM137.556 253.946C130.665 262.53 121.237 259.334 116.515 246.806C111.778 234.255 113.54 217.138 120.43 208.542C127.328 199.958 136.761 203.171 141.484 215.702C146.21 228.227 144.453 245.362 137.556 253.946Z" fill="white"/>
<path d="M117.175 262.176L117.328 262.419L116.333 271.497L116.242 271.557C117.939 273.325 119.757 274.774 121.678 275.813L121.642 275.653L124.58 268.088L129.651 268.941L131.786 277.348L131.726 277.495C133.722 277.1 135.657 276.291 137.502 275.109L137.423 275.025L137.351 265.772L141.727 261.033L146.176 265.552L146.171 265.709C147.635 263.299 148.948 260.594 150.072 257.621L149.981 257.645L146.926 250.243L148.929 241.724L153.987 240.637L154.044 240.764C154.243 238.992 154.397 237.186 154.483 235.353C154.573 233.573 154.596 231.799 154.568 230.051L154.506 230.171L153.126 229.395C142.04 252.075 128.028 259.887 117.175 262.176Z" fill="#782441"/>
<path d="M138.486 256.413C141.109 253.148 143.061 248.768 144.283 243.86C143.257 245.19 142.221 246.431 141.179 247.588C140.201 249.998 138.992 252.159 137.556 253.946C134.42 257.853 130.758 259.312 127.254 258.569C126.056 259.186 124.872 259.724 123.708 260.19C128.517 263.087 133.989 262.016 138.486 256.413Z" fill="#BB899A"/>
<path d="M121.03 194.72L121.039 187.18C121.039 187.18 123.612 185.392 125.496 185.238C125.496 185.238 122.373 186.58 121.03 194.72Z" fill="#A63F65"/>
<path opacity="0.14" d="M118.529 499.478C118.911 499.148 119.256 498.745 119.317 498.32C119.383 497.857 119.173 497.391 118.915 497.132C118.181 496.392 116.492 496.753 115.64 496.741C114.107 496.717 112.574 496.742 111.042 496.83C110.339 496.869 102.665 497.231 103.386 499.622C104.019 501.718 108.118 502.186 109.253 502.144C111.117 502.077 112.993 501.979 114.826 501.427C115.767 501.144 116.696 500.742 117.58 500.166C117.796 500.026 118.178 499.783 118.529 499.478Z" fill="black"/>
<path d="M106.678 501.803C110.097 501.803 112.869 496.765 112.869 490.551C112.869 484.336 110.097 479.298 106.678 479.298C103.258 479.298 100.486 484.336 100.486 490.551C100.486 496.765 103.258 501.803 106.678 501.803Z" fill="#435B6E"/>
<path d="M104.292 497.251L102.292 490.146L104.678 483.446L109.063 483.85L111.063 490.955L108.678 497.656L104.292 497.251Z" fill="#2E414C"/>
<path d="M106.678 494.672C107.93 494.672 108.946 492.827 108.946 490.551C108.946 488.275 107.93 486.429 106.678 486.429C105.425 486.429 104.41 488.275 104.41 490.551C104.41 492.827 105.425 494.672 106.678 494.672Z" fill="#22323A"/>
<path d="M149.619 494.916L135.575 496.612V485.026L149.619 486.593L150.454 490.246C150.538 490.612 150.537 491.024 150.451 491.389L149.619 494.916Z" fill="#2E414C"/>
<path d="M147.533 495.284C147.15 491.889 146.724 488.437 146.253 484.916C146.052 483.413 144.72 483.824 144.935 485.379C145.437 489.011 145.892 492.569 146.3 496.068C146.469 497.514 147.691 496.686 147.533 495.284Z" fill="#435B6E"/>
<path d="M149.848 494.982C149.511 491.794 149.136 488.556 148.723 485.258C148.546 483.852 147.379 484.25 147.568 485.702C148.007 489.096 148.405 492.429 148.764 495.708C148.912 497.065 149.988 496.301 149.848 494.982Z" fill="#435B6E"/>
<path d="M142.355 495.982C141.814 492.171 141.21 488.276 140.538 484.281C140.25 482.567 138.32 482.965 138.634 484.751C139.364 488.906 140.019 492.952 140.605 496.908C140.847 498.537 142.578 497.551 142.355 495.982Z" fill="#435B6E"/>
<path d="M144.895 495.627C144.457 491.998 143.969 488.301 143.428 484.525C143.197 482.91 141.66 483.335 141.909 485.008C142.489 488.912 143.012 492.731 143.482 496.479C143.676 498.028 145.076 497.125 144.895 495.627Z" fill="#435B6E"/>
<path opacity="0.15" d="M149.752 487.173L137.577 487.87L137.901 485.477L149.606 486.707L149.752 487.173Z" fill="white"/>
<path d="M131.903 479.425C130.042 481.319 128.942 486.07 128.942 490.551C128.942 495.031 130.042 499.783 131.903 501.677C134.725 504.548 138.364 500.327 138.364 490.551C138.363 480.774 134.725 476.553 131.903 479.425Z" fill="#5C7789"/>
<path d="M136.782 490.551C136.782 500.327 133.641 504.548 131.205 501.677C129.598 499.783 128.648 495.031 128.648 490.551C128.648 486.07 129.598 481.319 131.205 479.425C133.641 476.553 136.782 480.774 136.782 490.551Z" fill="#435B6E"/>
<path d="M130.023 496.346L129.239 490.234L130.194 484.278L132.781 482.819L134.575 491.094L132.492 498.534L130.023 496.346Z" fill="#2E414C"/>
<path d="M132.691 490.551C132.691 493.156 131.972 494.957 131.205 494.626C130.545 494.341 130.075 492.532 130.075 490.551C130.075 488.57 130.545 486.761 131.205 486.476C131.972 486.145 132.691 487.946 132.691 490.551Z" fill="#22323A"/>
<path d="M190.565 379.957L182.871 356.011L187.705 350.972L195.399 374.918L194.227 379.173C194.031 379.884 193.62 380.313 193.183 380.262L190.565 379.957Z" fill="#2E414C"/>
<path d="M185.542 364.992C187.136 362.258 188.699 359.461 190.233 356.6C190.877 355.399 189.749 353.197 189.104 354.4C187.57 357.26 186.006 360.057 184.413 362.791C183.744 363.939 184.874 366.138 185.542 364.992Z" fill="#435B6E"/>
<path d="M187.199 370.242C188.792 367.508 190.356 364.71 191.89 361.85C192.534 360.649 191.405 358.447 190.761 359.649C189.226 362.51 187.663 365.307 186.07 368.041C185.401 369.189 186.531 371.388 187.199 370.242Z" fill="#435B6E"/>
<path d="M188.856 375.492C190.449 372.758 192.013 369.961 193.547 367.1C194.191 365.899 193.062 363.697 192.418 364.9C190.883 367.76 189.32 370.557 187.727 373.291C187.058 374.439 188.188 376.638 188.856 375.492Z" fill="#435B6E"/>
<path d="M190.513 380.742C192.106 378.008 193.67 375.211 195.204 372.35C195.848 371.149 194.72 368.947 194.075 370.15C192.541 373.01 190.977 375.807 189.384 378.541C188.715 379.689 189.845 381.888 190.513 380.742Z" fill="#435B6E"/>
<path opacity="0.08" d="M194.493 378.238L194.118 379.652L186.108 356.238L188.102 353.605L194.493 378.238Z" fill="white"/>
<path d="M188.966 340.954C187.081 339.387 184.152 340.545 181.913 343.116C179.674 345.686 177.854 349.981 177.846 353.72C177.834 359.391 181.778 362.158 186.663 356.548C191.549 350.939 191.824 343.329 188.966 340.954Z" fill="#5C7789"/>
<path d="M185.866 354.294C180.981 359.903 177.288 357.846 177.494 352.725C177.631 349.348 179.527 345.268 181.765 342.697C184.004 340.126 186.858 338.754 188.614 339.958C191.278 341.784 190.752 348.685 185.866 354.294Z" fill="#435B6E"/>
<path d="M179.82 348.764L182.479 344.139L185.937 342.083L187.97 344.935L184.74 352.24L179.972 353.538L179.82 348.764Z" fill="#2E414C"/>
<path d="M184.061 349.242C182.76 350.737 181.497 350.745 181.276 349.462C181.086 348.358 181.752 346.649 182.742 345.512C183.732 344.376 184.874 344.008 185.349 344.785C185.901 345.689 185.363 347.748 184.061 349.242Z" fill="#22323A"/>
<path d="M189.102 364.093L185.778 361.497L186.347 358.895L188.847 359.768L188.799 358.318L191.489 361.162L191.1 364.007L189.102 364.093Z" fill="#EBCEB1"/>
<path d="M222.039 345.941C221.786 345.69 221.495 345.495 221.166 345.367C219.803 344.838 218.358 345.51 217.128 346.713C215.18 348.618 213.549 351.649 211.732 353.94C209.654 356.561 207.577 359.182 205.499 361.803L190.761 359.65L190.151 365.362L207.664 374.131C210.329 370.408 212.926 366.752 215.7 363.359C218.187 360.317 221.209 357.97 222.787 353.116C223.678 350.375 223.429 347.319 222.039 345.941Z" fill="#B3C4BD"/>
<path d="M183.219 277.075C180.932 275.732 179.682 271.245 180.428 267.055C180.723 265.395 181.289 264.038 182.005 263.079L176.31 265.59C173.663 266.757 170.934 267.075 168.216 266.778C166.574 266.599 164.885 267.174 163.307 268.6L128.241 300.282C126.447 301.903 125.099 304.354 124.26 307.221C122.776 312.289 120.825 316.857 118.381 320.494L117.88 321.239L121.438 334.306L123.53 333.404C126.282 332.217 129.13 332.134 131.925 332.913C133.84 333.446 135.86 332.95 137.727 331.264L171.982 300.314C173.56 298.888 174.832 296.788 175.744 294.301C177.255 290.183 179.042 286.421 181.152 283.291L185.138 277.375C184.512 277.532 183.859 277.452 183.219 277.075Z" fill="#748799"/>
<g opacity="0.23">
<g opacity="0.34">
<path d="M179.326 264.342C178.54 267.463 178.487 271.274 179.461 274.518C180.286 277.262 181.755 279.165 183.286 279.971L182.822 280.685C181.166 279.978 179.676 278.042 178.796 275.114C177.774 271.712 177.817 267.774 178.721 264.566L179.326 264.342Z" fill="black"/>
</g>
</g>
<g opacity="0.34">
<g opacity="0.34">
<path d="M118.344 320.542C119.677 321.486 120.856 323.235 121.57 325.685C122.375 328.447 122.371 331.433 121.897 334.199L122.519 333.838C123.107 330.936 123.07 327.952 122.21 325.004C121.457 322.419 120.229 320.587 118.824 319.672L118.344 320.542Z" fill="black"/>
</g>
</g>
<path d="M190.187 263.893C188.546 258.43 184.779 256.42 181.773 259.402C178.767 262.385 177.661 269.232 179.302 274.695C180.943 280.157 184.711 282.168 187.716 279.185C190.722 276.202 191.828 269.355 190.187 263.893ZM183.462 275.517C181.589 274.416 180.561 270.764 181.167 267.359C181.772 263.954 183.782 262.087 185.655 263.187C187.528 264.288 188.556 267.94 187.95 271.345C187.345 274.749 185.335 276.617 183.462 275.517Z" fill="#748799"/>
<path d="M121.902 325.304C120.377 319.731 116.655 317.459 113.589 320.23C110.522 323 109.272 329.765 110.796 335.338C112.321 340.911 116.043 343.183 119.109 340.413C122.176 337.642 123.426 330.878 121.902 325.304ZM117.708 335.835C116.007 337.331 113.961 336.037 113.138 332.946C112.315 329.855 113.027 326.137 114.728 324.641C116.428 323.145 118.475 324.439 119.297 327.53C120.12 330.621 119.409 334.339 117.708 335.835Z" fill="#748799"/>
<path d="M189.207 277.129C191.673 272.648 191.673 265.383 189.207 260.901C186.742 256.42 182.744 256.42 180.279 260.901C177.813 265.383 177.813 272.648 180.279 277.129C182.744 281.61 186.742 281.61 189.207 277.129Z" fill="#435B6E"/>
<path d="M182.312 275.846L180.272 268.601L182.705 261.768L187.177 262.181L189.217 269.426L186.784 276.258L182.312 275.846Z" fill="#2E414C"/>
<path d="M184.745 273.216C186.022 273.216 187.057 271.335 187.057 269.014C187.057 266.692 186.022 264.811 184.745 264.811C183.467 264.811 182.432 266.692 182.432 269.014C182.432 271.335 183.467 273.216 184.745 273.216Z" fill="#22323A"/>
<path d="M52.0643 292.985C49.4336 294.58 46.6267 291.091 44.0888 293.396C42.4384 294.895 41.3163 298.67 41.0461 302.482C40.9203 304.258 40.9611 306.115 41.3137 307.669C41.5425 308.678 41.8936 309.523 42.2876 310.237C42.8143 311.191 43.4269 311.906 44.084 312.372C43.8297 313.649 43.5225 314.885 43.1671 316.058C44.4623 316.501 45.7578 316.944 47.0533 317.386C47.221 315.782 47.3887 314.179 47.5565 312.575C47.9225 312.368 48.2821 312.094 48.6284 311.737C50.7232 309.579 52.249 304.762 52.4051 299.813C52.478 297.495 52.2747 295.222 52.0643 292.985Z" fill="#EBCEB1"/>
<path d="M38.7468 303.2C38.6356 302.856 38.5289 302.506 38.4326 302.146C37.2665 297.772 36.6407 292.636 38.3657 288.42C40.1225 284.127 43.7208 282.249 46.4709 283.522C47.9863 284.223 49.588 285.166 51.0739 284.279C51.5183 284.014 51.9491 283.563 52.2011 282.847C52.4349 282.183 52.495 281.353 52.7363 280.698C53.3008 279.166 54.8412 279.528 55.1726 281.271C55.2698 281.782 55.2761 282.352 55.4229 282.822C55.7477 283.865 56.5402 283.91 57.1938 284.066C57.4034 284.116 57.6294 284.209 57.7626 284.507C58.0057 285.051 57.7742 285.908 57.4397 286.256C56.9781 286.737 56.1727 286.602 55.8807 287.543C55.6695 288.224 55.9926 289.529 55.9387 290.314C55.749 293.065 54.4427 295.564 53.063 296.5C51.741 297.397 50.5573 296.423 49.2369 295.809C48.8633 295.635 48.4646 295.21 48.0983 295.118C47.6365 295.002 47.1815 295.413 46.7403 295.591C46.1894 295.814 45.6169 295.688 45.0546 295.604C44.4922 295.52 43.907 295.485 43.3844 295.873C42.862 296.26 42.4191 297.179 42.4506 298.202C42.4889 299.442 43.176 300.407 43.1629 301.648C43.1518 302.725 42.6252 303.528 42.3999 304.524C42.2256 305.295 42.2206 306.228 41.9025 306.828C41.7613 307.095 41.5703 307.267 41.4419 307.554C41.2742 307.93 41.2227 308.482 40.999 308.745C40.7513 309.036 40.4032 308.806 40.2126 308.397C40.0216 307.989 39.9437 307.451 39.8493 306.943C39.5959 305.578 39.1418 304.421 38.7468 303.2Z" fill="#333333"/>
<path d="M34.043 336.13C33.3093 342.068 32.9322 348.131 32.6633 354.193C32.4151 359.784 31.73 365.106 31.73 370.721C31.73 383.618 29.8428 395.872 28.9424 408.52C28.4374 415.611 32.6532 413.1 35.4822 412.971C39.1017 412.804 42.721 412.638 46.3405 412.472C49.2914 412.336 52.2758 412.192 55.1252 410.792C57.668 409.543 62.1998 406.078 62.1736 400.725C62.1582 397.585 61.1132 393.646 60.7772 390.494C60.4097 387.046 60.1335 383.568 59.9063 380.081C58.9912 366.044 58.9359 351.829 57.4985 337.906C56.6172 329.371 54.7991 321.604 50.4282 317.23C47.4221 314.221 43.5897 313.554 40.5596 316.482C36.9933 319.928 35.2181 327.379 34.2529 334.507C34.18 335.047 34.1098 335.588 34.043 336.13Z" fill="#736357"/>
<path d="M98.5817 337.413L101.168 348.859C101.608 350.807 102.834 351.737 103.905 350.937C104.976 350.137 105.488 347.91 105.048 345.963L102.461 334.517C102.021 332.569 100.796 331.639 99.7248 332.439C98.6535 333.239 98.1415 335.466 98.5817 337.413Z" fill="#2E414C"/>
<path d="M100.116 345.419C101.884 345.158 103.653 344.929 105.423 344.732C105.924 344.676 106.024 346.091 105.518 346.148C103.747 346.345 101.979 346.574 100.211 346.835C99.709 346.91 99.6106 345.494 100.116 345.419Z" fill="#435B6E"/>
<path d="M99.1791 341.273C100.947 341.012 102.716 340.783 104.486 340.586C104.987 340.53 105.086 341.945 104.58 342.002C102.81 342.199 101.041 342.428 99.2734 342.689C98.772 342.764 98.6736 341.348 99.1791 341.273Z" fill="#435B6E"/>
<path d="M98.5861 337.476C100.354 337.215 102.123 336.986 103.893 336.788C104.394 336.733 104.493 338.148 103.987 338.205C102.217 338.402 100.448 338.631 98.6804 338.892C98.179 338.966 98.0806 337.551 98.5861 337.476Z" fill="#435B6E"/>
<path d="M98.8954 333.789C99.875 333.423 100.857 333.077 101.844 332.764C102.572 332.533 103.654 331.803 104.402 332.426C105.117 333.021 105.538 334.892 105.899 336.075C106.399 337.712 106.842 339.406 107.221 341.14C107.561 342.698 107.846 344.287 108.089 345.895C108.28 347.154 108.438 348.41 107.884 349.351C106.681 351.392 104.414 351.398 102.841 351.541C101.904 351.625 101.665 348.921 102.608 348.836C103.917 348.717 105.208 348.57 106.42 347.705C106.874 347.379 106.815 347.36 106.683 346.452C106.584 345.77 106.468 345.092 106.346 344.421C106.131 343.243 105.887 342.079 105.616 340.936C105.344 339.792 105.046 338.667 104.721 337.568C104.545 336.973 104.359 336.264 104.14 335.723C103.834 334.968 103.831 335.06 103.394 335.067C102.75 335.078 102.046 335.474 101.42 335.682C100.653 335.935 99.8899 336.208 99.1282 336.494C98.2153 336.836 97.9873 334.13 98.8954 333.789Z" fill="#AFBDC6"/>
<path d="M95.4991 335.867C96.1862 335.427 96.8922 335.174 97.5773 334.72C97.6832 334.641 97.7889 334.565 97.8938 334.494C98.8003 333.877 99.4521 336.333 98.5426 337.039C98.3075 337.222 98.0709 337.393 97.8318 337.552C97.2786 338.016 96.8039 338.682 96.8788 339.946C96.9772 341.606 97.4098 343.352 97.8012 344.853C98.2159 346.443 98.7254 347.939 99.3295 349.318C99.6867 350.133 99.6582 350.323 100.204 350.136C100.691 349.968 101.176 349.788 101.662 349.615C102.157 349.439 102.468 350.08 102.523 350.791C102.715 351.32 102.73 352.028 102.377 352.52C101.332 353.977 99.8915 355.459 98.6076 353.823C97.9485 352.983 97.6459 351.384 97.296 350.135C96.8761 348.637 96.4561 347.138 96.0361 345.64C95.4429 343.523 94.1547 340.509 94.4191 337.997C94.5333 336.907 94.9427 336.224 95.4991 335.867Z" fill="#2E414C"/>
<path d="M109.816 342.656C111.838 342.033 113.795 341.135 115.774 340.157C117.098 339.501 118.403 338.922 119.679 338.011C120.937 337.113 122.181 336.148 123.454 335.326C124.406 334.712 127.367 332.247 128.069 334.464C128.493 335.805 127.779 337.579 127.361 338.614C126.742 340.148 126.091 341.71 125.421 343.154C123.413 347.484 121.097 351.341 118.547 354.595C116.529 357.169 114.335 359.387 111.968 360.596C111.696 360.735 111.421 360.861 111.143 360.972C111.027 361.019 110.903 361.062 110.792 360.985C110.629 360.873 110.548 360.546 110.485 360.25C109.46 355.456 108.597 350.548 107.901 345.563C107.813 344.927 107.729 344.231 107.88 343.635C108.124 342.665 109.322 342.808 109.816 342.656Z" fill="#AFBDC6"/>
<path d="M95.8338 336.187C95.4335 336.325 95.2224 337.1 95.3883 337.821L98.435 351.043C98.5707 351.632 98.915 351.979 99.2404 351.855L102.48 350.615L105.344 363.186C105.26 363.003 104.255 363.104 103.898 362.892C103.262 362.512 102.716 362.431 102.043 362.387C97.754 362.105 93.2189 362.389 89.7537 367.608C84.1807 376.001 78.7184 384.665 73.2535 393.29C67.7098 402.039 62.2167 410.897 56.8353 419.976C56.7276 420.157 56.6199 420.339 56.5125 420.521C53.8514 425.018 51.2176 429.568 48.576 434.102C47.2024 436.46 45.8269 438.814 44.4445 441.154C42.9583 443.671 42.0722 446.224 39.8158 445.224C37.8017 444.332 35.7402 442.013 34.3424 439.265C33.1947 437.009 32.3931 434.305 31.9381 431.351C31.4467 428.162 30.6202 424.218 32.375 421.892C33.1448 420.872 33.9055 419.858 34.636 418.743C45.9278 402.807 57.4308 386.907 68.53 370.375C69.3167 369.204 70.1039 368.032 70.8924 366.865C73.8082 362.548 78.6334 354.854 81.4712 350.362C87.0001 341.612 87.4675 335.567 90.4708 325.369C91.6833 321.252 92.8042 317.047 93.8633 312.793L98.9491 335.115L95.8338 336.187Z" fill="#435B6E"/>
<path d="M103.681 300.651C108.025 298.634 119.181 307.18 122.102 309.01C125.023 310.841 123.313 315.126 123.313 315.126C122.808 315.325 122.305 315.534 121.801 315.746C120.44 316.318 119.081 316.919 117.729 317.558C116.74 318.025 115.754 318.508 114.768 318.999C114.276 319.244 113.782 319.485 113.291 319.74C112.899 319.945 112.547 320.359 112.16 320.626C111.73 320.924 111.299 321.222 110.884 321.585C110.093 322.278 109.242 323.221 108.622 324.364C108.404 324.766 108.08 325.783 108.228 326.407C108.246 326.481 116.38 360.629 116.38 360.629C116.477 361.034 116.326 361.492 116.084 361.53L105.344 363.186C105.346 363.184 105.816 362.432 105.608 359.984C105.466 358.309 105.222 356.663 104.95 355.044C104.665 353.353 104.332 351.692 103.992 350.036L106.687 349.005C107.516 348.687 107.931 347.046 107.557 345.565L104.688 334.186C104.547 333.628 104.218 333.303 103.905 333.411L100.758 334.494C98.8988 326.202 96.8129 318.079 94.5093 310.165C94.2966 311.043 94.0805 311.919 93.8628 312.794L93.634 311.789C95.209 307.71 99.3375 302.668 103.681 300.651Z" fill="#C1D0DB"/>
<path d="M103.992 350.037C104.332 351.693 104.665 353.354 104.95 355.045C105.222 356.663 105.467 358.309 105.609 359.984C105.816 362.433 105.346 363.185 105.344 363.186L102.48 350.616L103.992 350.037Z" fill="#C1D0DB"/>
<path d="M100.758 334.494L98.9485 335.116L93.8628 312.794C94.0805 311.919 94.2966 311.043 94.5093 310.165C96.8131 318.079 98.8991 326.202 100.758 334.494Z" fill="#C1D0DB"/>
<path d="M74.2366 393.08C74.1365 393.238 74.0366 393.396 73.9365 393.554C68.0312 402.874 62.1802 412.309 56.448 421.98C56.3333 422.173 56.2188 422.367 56.1043 422.561C53.2699 427.351 50.4644 432.197 47.6505 437.028C46.1873 439.539 44.7223 442.047 43.2495 444.54C41.6665 447.22 40.7227 449.939 38.3192 448.875C36.174 447.924 33.978 445.454 32.4889 442.527C31.2663 440.124 30.4125 437.244 29.928 434.098C29.4046 430.7 28.524 426.499 30.3931 424.022C31.2131 422.935 32.0232 421.855 32.8014 420.667C43.5212 405.539 54.8789 389.723 65.4925 374.151L74.2366 393.08Z" fill="#E29530"/>
<path d="M36.0743 428.399C34.7443 430.429 34.5713 434.033 35.6879 436.45C36.8045 438.868 38.7878 439.182 40.1178 437.153C41.4479 435.123 41.6209 431.519 40.5043 429.102C39.3876 426.684 37.4043 426.37 36.0743 428.399Z" fill="white"/>
<path opacity="0.08" d="M73.1174 384.204L70.4543 378.439C69.9554 377.359 70.0318 375.75 70.6261 374.844C74.4272 369.046 87.0347 349.72 87.769 347.355C88.418 345.264 89.1151 343.219 89.8035 341.17C90.1972 339.998 91.4384 334.709 92.1033 334.281C93.597 333.321 94.584 340.921 94.9863 342.677C95.7844 346.162 96.557 349.666 97.3195 353.178C97.5573 354.274 97.1593 355.478 96.5153 355.613C95.0918 355.913 92.7854 356.73 91.1295 358.956C88.9936 361.827 78.5436 378.878 75.1325 384.461C74.5415 385.428 73.6284 385.311 73.1174 384.204Z" fill="white"/>
<path d="M36.0283 428.232C37.4411 426.076 39.5553 426.411 40.7412 428.979C41.9272 431.547 41.7429 435.389 40.3301 437.544C38.9174 439.7 36.8032 439.365 35.6172 436.798C34.4312 434.23 34.6156 430.387 36.0283 428.232ZM36.2556 428.724C34.9921 430.652 34.8272 434.088 35.8878 436.385C36.9484 438.681 38.8394 438.981 40.1031 437.053C41.3665 435.124 41.5315 431.688 40.4709 429.392C39.41 427.095 37.519 426.796 36.2556 428.724Z" fill="#435B6E"/>
<path d="M63.9076 382.973L65.2012 386.426L67.2009 387.1L67.3422 387.933L66.7812 388.274L68.3582 389.686L68.9476 392.026L68.002 394.952L66.1897 396.233L64.6612 394.2L63.7484 390.487L61.865 385.896L63.9076 382.973Z" fill="#EBCEB1"/>
<path d="M65.4175 382.531L51.9254 349.073L52.9058 329.649L41.817 328.503L41.7834 353.717L43.3077 360.356L61.8494 389.79L65.4175 382.531Z" fill="#736357"/>
<path d="M122.343 340.916C124.809 336.435 124.809 329.17 122.343 324.689C119.878 320.208 115.88 320.208 113.415 324.689C110.949 329.17 110.949 336.435 113.415 340.916C115.88 345.397 119.878 345.397 122.343 340.916Z" fill="#435B6E"/>
<path d="M115.448 339.635L113.408 332.39L115.841 325.557L120.313 325.97L122.352 333.214L119.92 340.047L115.448 339.635Z" fill="#2E414C"/>
<path d="M117.88 337.005C119.157 337.005 120.193 335.124 120.193 332.803C120.193 330.481 119.157 328.6 117.88 328.6C116.603 328.6 115.568 330.481 115.568 332.803C115.568 335.124 116.603 337.005 117.88 337.005Z" fill="#22323A"/>
<path opacity="0.27" d="M142.086 313.46C142.48 309.047 140.831 304.889 138.403 304.173C135.975 303.457 133.687 306.454 133.293 310.866C132.899 315.279 134.548 319.437 136.976 320.153C139.404 320.87 141.692 317.873 142.086 313.46Z" fill="#414C56"/>
<path opacity="0.27" d="M151.509 308.44C153.969 308.44 155.963 304.815 155.963 300.345C155.963 295.874 153.969 292.25 151.509 292.25C149.049 292.25 147.055 295.874 147.055 300.345C147.055 304.815 149.049 308.44 151.509 308.44Z" fill="#414C56"/>
<path opacity="0.27" d="M165.049 295.921C167.509 295.921 169.503 292.297 169.503 287.826C169.503 283.356 167.509 279.731 165.049 279.731C162.589 279.731 160.595 283.356 160.595 287.826C160.595 292.297 162.589 295.921 165.049 295.921Z" fill="#414C56"/>
<path opacity="0.1091" d="M216.406 202.405C216.378 202.788 216.35 203.171 216.322 203.554C216.315 203.655 216.898 203.59 216.893 203.565C216.866 203.423 216.838 203.281 216.81 203.138C216.769 202.932 216.392 202.602 216.406 202.405Z" fill="#B3C4BD"/>
<path opacity="0.1091" d="M216.533 201.408C216.533 201.671 216.533 201.933 216.533 202.195C216.533 202.271 217.104 202.272 217.104 202.197C217.104 201.934 217.104 201.671 217.104 201.408C217.104 201.408 216.533 201.408 216.533 201.408Z" fill="#B3C4BD"/>
<path opacity="0.1091" d="M217.121 202.013C217.002 202.445 216.884 202.878 216.766 203.309C216.758 203.336 217.35 203.379 217.337 203.3C217.265 202.872 217.193 202.443 217.121 202.013Z" fill="#B3C4BD"/>
<path opacity="0.1091" d="M217.382 204.031C217.35 204.17 217.318 204.309 217.287 204.448C217.284 204.46 217.866 204.526 217.857 204.417C217.826 204.03 217.794 203.644 217.762 203.257C217.778 203.45 217.428 203.831 217.382 204.031Z" fill="#B3C4BD"/>
<path opacity="0.1091" d="M217.628 202.038C217.526 202.479 217.424 202.919 217.323 203.36C217.314 203.399 217.908 203.393 217.894 203.327C217.805 202.897 217.716 202.467 217.628 202.038Z" fill="#B3C4BD"/>
<path opacity="0.1091" d="M215.979 201.382C215.958 201.534 215.938 201.687 215.918 201.839C215.912 201.883 216.493 201.942 216.489 201.869C216.468 201.493 216.448 201.116 216.428 200.74C216.438 200.933 216.006 201.176 215.979 201.382Z" fill="#B3C4BD"/>
<path opacity="0.1091" d="M216.18 201.928C216.085 202.358 215.99 202.789 215.895 203.22C215.882 203.278 216.475 203.296 216.466 203.25C216.37 202.81 216.275 202.369 216.18 201.928Z" fill="#B3C4BD"/>
<path opacity="0.1091" d="M216.474 203.944C216.473 204.227 216.472 204.51 216.472 204.792C216.471 204.873 217.043 204.874 217.043 204.797C217.042 204.554 217.041 204.311 217.041 204.069C217.04 204.025 216.473 203.984 216.474 203.944Z" fill="#B3C4BD"/>
<path opacity="0.1091" d="M217.221 200.835C217.2 201.209 217.18 201.584 217.16 201.958C217.155 202.037 217.737 201.979 217.73 201.93C217.71 201.778 217.69 201.627 217.67 201.476C217.642 201.27 217.21 201.027 217.221 200.835Z" fill="#B3C4BD"/>
<path opacity="0.1091" d="M216.106 203.145C216.082 203.517 216.059 203.889 216.036 204.261C216.029 204.363 216.612 204.317 216.606 204.285C216.583 204.132 216.56 203.979 216.537 203.826C216.505 203.617 216.094 203.341 216.106 203.145Z" fill="#B3C4BD"/>
<path opacity="0.1091" d="M216.832 200.454C216.829 200.764 216.825 201.073 216.822 201.383C216.821 201.451 217.394 201.444 217.393 201.372C217.39 201.156 217.387 200.94 217.383 200.725C217.381 200.63 216.831 200.542 216.832 200.454Z" fill="#B3C4BD"/>
<path opacity="0.1091" d="M216.058 201.258C215.922 201.672 215.786 202.085 215.651 202.499C215.646 202.515 216.232 202.619 216.221 202.541C216.167 202.113 216.112 201.686 216.058 201.258Z" fill="#B3C4BD"/>
</g>
<defs>
<clipPath id="clip0_564_190">
<rect width="250" height="540" fill="white"/>
</clipPath>
</defs>
</svg>
