<svg width="60" height="61" viewBox="0 0 60 61" fill="none" xmlns="http://www.w3.org/2000/svg">
<path d="M30 33.3999C30.7956 33.3999 31.5587 33.0838 32.1213 32.5212C32.6839 31.9586 33 31.1956 33 30.3999C33 29.6043 32.6839 28.8412 32.1213 28.2786C31.5587 27.716 30.7956 27.3999 30 27.3999C29.2044 27.3999 28.4413 27.716 27.8787 28.2786C27.3161 28.8412 27 29.6043 27 30.3999C27 31.1956 27.3161 31.9586 27.8787 32.5212C28.4413 33.0838 29.2044 33.3999 30 33.3999Z" stroke="#133E87" stroke-width="1.5" stroke-linecap="round" stroke-linejoin="round"/>
<path d="M37.622 28.7949L36.525 26.1449L38 24.3999L36 22.3999L34.265 23.8829L31.558 22.7699L30.935 20.3999H28.981L28.349 22.8009L25.704 23.9159L24 22.3999L22 24.3999L23.453 26.1889L22.373 28.8459L20 29.3999V31.3999L22.401 32.0559L23.516 34.6999L22 36.3999L24 38.3999L25.791 36.9399L28.397 38.0119L29 40.3999H31L31.604 38.0129L34.255 36.9149C34.697 37.2319 36 38.3999 36 38.3999L38 36.3999L36.516 34.6499L37.614 31.9979L40 31.3779V29.3999L37.622 28.7949Z" stroke="#133E87" stroke-width="1.5" stroke-linecap="round" stroke-linejoin="round"/>
</svg>
