<svg width="210" height="336" viewBox="0 0 210 336" fill="none" xmlns="http://www.w3.org/2000/svg">
<path opacity="0.08" d="M107.557 291.827C110.893 290.913 114.227 289.923 117.56 288.934C128.579 285.663 139.6 283.614 150.64 281.616C158.479 280.197 166.368 279.444 174.201 281.529C180.936 283.321 189.069 286.92 194.27 300.354C197.187 307.889 195.947 317.405 191.657 323.822C187.124 330.602 181.371 330.799 176.359 331.747C129.246 340.658 82.3859 328.964 35.2578 329.45C28.5896 329.519 21.8151 330.645 15.1522 331.403C11.1047 331.864 5.84357 333.826 1.86675 330.991C-0.645731 329.2 -0.458342 322.953 1.45409 319.716C4.94496 313.808 10.2048 313.138 14.1771 312.469C24.5668 310.719 34.9525 308.785 45.3335 306.673C66.0956 302.447 86.8389 297.498 107.557 291.827Z" fill="black"/>
<path d="M44.7592 170.826L46.765 172.867L48.72 171.847L49.0509 172.478L48.6328 173.238L50.3905 173.222L51.4928 174.838L51.3654 178.224L50.0584 180.84L48.1911 180.261L46.4623 177.679L43.6492 175.098L44.7592 170.826Z" fill="#EBCEB1"/>
<path d="M46.0019 169.205C42.6853 166.1 39.3687 162.996 36.0522 159.891C33.7188 157.707 31.3854 155.522 29.052 153.338C28.2827 152.618 27.469 151.97 26.7267 151.161C25.3863 149.7 24.6786 147.235 23.425 145.491C22.437 144.116 21.1788 143.228 19.95 143.58C18.0466 144.126 16.7022 147.566 16.4631 151.041C16.3075 153.301 16.5325 155.553 16.8942 157.713C17.0395 158.581 17.4014 162.005 17.7762 162.593L20.771 167.298L44.5922 178.595L46.0019 169.205Z" fill="#736357"/>
<path d="M201.111 215.633L197.474 263.174L198.766 297.517L196.117 299.196L193.747 267.461L188.688 209.469L201.111 215.633Z" fill="#EBCEB1"/>
<path d="M196.123 300.165L195.831 303.723L196.495 310.485L198.681 310.109L199.093 300.092L198.771 298.486L196.123 300.165Z" fill="#514943"/>
<path d="M179.684 214.22L180.853 254.541L185.798 310.911L188.478 310.845L187.286 258.581L190.762 210.398L179.684 214.22Z" fill="#EBCEB1"/>
<path d="M185.842 309.947L182.417 314.511L182.844 317.92L189.115 315.204L188.605 310.278L185.842 309.947Z" fill="#514943"/>
<path d="M179.094 220.263L179.205 267.066L182.356 298.624L189.536 296.512L189.327 260.04L192.138 221.529L190.079 213.91L179.695 216.052L179.094 220.263Z" fill="#C7B299"/>
<path d="M191.832 260.729L194.055 293.924L200.298 292.157L201.252 263.592L203.439 225.427L201.11 218.449L190.247 220.285L191.832 260.729Z" fill="#C7B299"/>
<path d="M203.86 134.128C203.382 125.889 197.618 120.835 195.157 129.233C194.418 131.756 193.828 134.509 193.795 137.372C193.761 140.235 194.362 143.229 195.617 144.898C195.624 144.908 195.632 144.915 195.639 144.924C195.501 145.617 195.363 146.31 195.226 147.003C195.196 147.151 195.166 147.317 195.198 147.464C195.234 147.631 195.335 147.711 195.426 147.774C195.872 148.081 196.318 148.388 196.764 148.694C196.985 148.847 197.216 149.002 197.451 148.957C197.966 148.86 198.291 147.872 198.421 146.946C198.452 146.724 198.478 146.498 198.502 146.271C201.432 145.61 204.172 139.514 203.86 134.128Z" fill="#EACDB0"/>
<path d="M195.02 131.692C194.164 133.511 193.997 135.981 193.979 138.295C193.962 140.556 193.645 142.683 193.743 144.954C193.584 145.261 193.314 144.953 193.155 144.651C192.221 142.881 191.3 141.085 190.393 139.267C190.302 139.084 190.208 138.894 190.166 138.658C190.112 138.358 190.148 138.031 190.186 137.723C190.952 131.637 192.655 127.512 194.961 123.186C196.081 121.086 198.762 119.166 199.92 122.369C200.184 123.098 200.225 124.022 200.235 124.901C200.241 125.426 200.238 125.966 200.131 126.453C199.707 128.398 198.678 127.996 197.811 128.415C196.741 128.931 195.741 130.157 195.02 131.692Z" fill="#333333"/>
<path d="M202.395 137.9C202.245 139.673 201.847 141.623 201.413 143.218C201.263 143.771 200.537 144.95 200.484 145.338C200.333 146.462 201.395 149.496 201.647 150.585C203.834 149.114 206.021 147.644 208.208 146.173C208.376 146.06 208.552 145.937 208.665 145.683C208.768 145.452 208.804 145.146 208.835 144.853C209.437 139.088 209.056 133.648 208.284 128.065C207.512 122.485 205.147 117.465 201.906 116.934C199.288 116.505 197.18 119.475 197.717 124.596C198.124 128.462 200.567 129.94 201.722 132.826C202.447 134.638 202.56 136.267 202.395 137.9Z" fill="#333333"/>
<path d="M201.018 149.597C201.068 149.644 201.117 149.691 201.167 149.738C203.52 152.025 204.945 160.049 205.755 164.758C207.844 176.912 208.285 189.151 207.653 201.862C207.312 208.706 206.802 215.521 206.215 222.309C206.053 224.185 203.975 240.822 204.424 241.342C199.816 236.013 195.11 230.893 190.066 227.26C185.021 223.627 179.572 226.842 174.169 227.703C177.223 206.686 181.047 180.139 185.795 160.271C186.363 157.895 186.81 155.323 187.561 153.123C188.427 150.59 189.506 150.043 190.908 148.764C191.389 148.326 191.872 147.885 192.386 147.622C195.091 146.241 198.532 147.271 201.018 149.597Z" fill="#B3C4BD"/>
<path d="M176.375 128.404L175.806 121.911L177.32 121.395L178.25 125.701L178.898 124.852L179.013 130.504L177.483 131.428L176.375 128.404Z" fill="#EBCEB1"/>
<path d="M202.419 169.298C202.4 168.776 202.335 168.225 202.219 167.652C201.737 165.275 200.652 163.415 199.435 162.168C197.508 160.193 195.227 159.307 193.191 157.741C190.861 155.95 188.532 154.159 186.202 152.368L179.327 128.578L176.345 130.693L181.627 162.283C184.782 164.388 187.87 166.422 190.931 168.87C193.674 171.064 196.381 174.453 199.482 174.283C201.233 174.187 202.521 172.171 202.419 169.298Z" fill="#B3C4BD"/>
<path d="M148.856 78.908C147.305 87.1847 149.739 96.1801 154.293 98.9998C158.847 101.82 163.797 97.3958 165.348 89.1192C166.9 80.8425 164.466 71.8471 159.912 69.0274C155.357 66.2077 150.408 70.6314 148.856 78.908ZM154.192 82.2113C154.74 79.2903 156.486 77.729 158.094 78.7242C159.701 79.7194 160.56 82.8944 160.013 85.8154C159.465 88.7364 157.718 90.2977 156.111 89.3025C154.504 88.3073 153.645 85.1328 154.192 82.2113Z" fill="#D1B337"/>
<path d="M130.022 75.783C129.716 79.0822 129.598 82.3828 129.657 85.6421L125.145 88.465L126.618 102.006L131.388 101.494C132.025 104.583 132.829 107.552 133.786 110.356L130.651 116.909L135.652 127.296L139.637 122.524C141.022 124.599 142.532 126.444 144.156 128.018L143.245 136.538L150.434 140.989L152.574 133.23C154.389 133.785 156.205 133.999 157.998 133.892L159.552 142.093L167.002 139.415L166.72 130.747C168.42 129.589 170.054 128.129 171.596 126.389L175.202 132.086L180.918 122.997L178.292 115.754C179.433 113.238 180.449 110.494 181.315 107.541L186.003 109.198L188.452 96.1324L184.182 92.2433C184.488 88.9441 184.606 85.6435 184.547 82.3842L189.059 79.5613L187.586 66.0206L182.816 66.5327C182.179 63.443 181.376 60.4738 180.418 57.6706L183.553 51.1176L178.552 40.73L174.567 45.5021C173.182 43.4273 171.672 41.5822 170.048 40.008L170.96 31.4884L163.77 27.0372L161.631 34.7967C159.815 34.2407 157.999 34.0266 156.206 34.1339L154.653 25.9329L147.202 28.6109L147.484 37.2795C145.784 38.437 144.15 39.8975 142.608 41.6376L139.002 35.94L133.287 45.0294L135.912 52.2719C134.771 54.7881 133.755 57.5327 132.889 60.4853L128.201 58.8281L125.752 71.8938L130.022 75.783ZM177.711 93.2591L163.524 84.475C163.611 80.5409 162.589 76.7654 160.822 74.488L165.655 48.7036C175.088 56.2289 180.191 75.0862 177.711 93.2591ZM156.848 95.6841C159.013 95.8413 161.09 93.9848 162.344 90.7727L176.531 99.5568C172.39 116.701 162.014 125.975 152.015 121.468L156.848 95.6841ZM156.111 89.3025C154.504 88.3073 153.645 85.1328 154.192 82.2113C154.74 79.2899 156.487 77.729 158.094 78.7242C159.701 79.7194 160.56 82.8944 160.013 85.8154C159.465 88.7364 157.718 90.2977 156.111 89.3025ZM136.494 74.7676L150.681 83.5517C150.594 87.4858 151.616 91.2613 153.383 93.5387L148.55 119.323C139.117 111.798 134.014 92.9405 136.494 74.7676ZM137.674 68.4699C141.814 51.3258 152.191 42.0516 162.189 46.5582L157.356 72.3426C155.192 72.1854 153.114 74.042 151.861 77.2541L137.674 68.4699Z" fill="#EFD154"/>
<path d="M133.641 69.4878C138.048 45.9762 152.159 33.3648 165.095 41.3746C178.032 49.3845 184.971 75.0286 180.564 98.5402C176.156 122.051 162.046 134.663 149.11 126.653C136.173 118.643 129.234 92.9989 133.641 69.4878ZM134.63 70.0997C130.409 92.6197 137.055 117.183 149.447 124.855C161.838 132.527 175.353 120.448 179.575 97.9277C183.796 75.4072 177.149 50.8436 164.758 43.1716C152.367 35.4992 138.851 47.5793 134.63 70.0997Z" fill="#C1B23F"/>
<path d="M136.065 78.8912C134.815 95.7236 139.829 112.366 148.55 119.323L150.257 110.217C151.261 111.802 152.269 113.308 153.277 114.738L152.015 121.469C154.434 122.559 156.874 122.836 159.243 122.397C162.031 125.632 164.707 128.294 167.122 130.454C166.988 130.55 166.856 130.656 166.721 130.748L167.003 139.417L159.552 142.095L157.999 133.894C156.205 134.001 154.389 133.787 152.574 133.231L150.434 140.991L143.245 136.539L144.157 128.02C142.532 126.446 141.022 124.6 139.638 122.526L135.653 127.298L130.651 116.91L133.786 110.357C132.829 107.554 132.025 104.585 131.388 101.495L126.619 102.007L125.145 88.4665L129.657 85.6436C129.599 82.3843 129.716 79.0837 130.022 75.7845L125.753 71.8958L128.202 58.8301L131.387 59.9559C132.682 66.8078 134.268 73.1069 136.065 78.8912Z" fill="#D1B337"/>
<path d="M134.224 72.4987C130.888 94.3384 137.494 117.455 149.447 124.856C153.818 127.563 158.329 127.808 162.524 126.007C162.966 126.468 163.404 126.914 163.837 127.346C159.161 129.76 154.05 129.712 149.11 126.653C136.253 118.693 129.322 93.3148 133.563 69.9233C133.779 70.7907 133.999 71.6506 134.224 72.4987Z" fill="#ADA03B"/>
<path d="M169.104 38.9643C169.13 39.1261 170.007 32.1715 170.007 32.1715L164.249 28.6702C164.249 28.6702 168.029 32.3278 169.104 38.9643Z" fill="#FAEB7D"/>
<path d="M63.4742 146.257L60.9531 148.555C61.0727 150.288 61.2374 152.02 61.4495 153.747C61.6616 155.474 61.9179 157.169 62.215 158.831L65.0342 158.962C68.2411 159.112 70.1081 165.608 68.3437 170.477L66.7857 174.777C67.947 177.569 69.2588 180.159 70.7094 182.513L73.1901 180.062C76.0083 177.278 79.4127 181.208 79.2242 187.028L79.0583 192.15C80.8473 193.535 82.6949 194.592 84.5791 195.316L86.0579 190.925C87.7328 185.952 91.7619 186.262 93.1999 191.473L94.464 196.055C95.4177 195.837 96.3709 195.538 97.3211 195.152C98.2712 194.767 99.204 194.301 100.118 193.761L100.19 188.638C100.273 182.809 103.847 179.416 106.526 182.623L108.892 185.454C110.429 183.344 111.854 180.96 113.149 178.323L111.801 173.815C110.269 168.692 112.431 162.506 115.633 162.848L118.452 163.15C119.214 159.898 119.795 156.54 120.193 153.116L117.777 150.428C115.041 147.384 115.212 140.062 118.079 137.448L120.6 135.151C120.481 133.418 120.316 131.685 120.104 129.958C119.892 128.231 119.635 126.536 119.338 124.875L116.519 124.743C113.312 124.594 111.445 118.097 113.209 113.228L114.767 108.929C113.606 106.136 112.294 103.547 110.844 101.192L108.363 103.643C105.545 106.428 102.14 102.498 102.329 96.6784L102.495 91.5557C100.706 90.1708 98.8582 89.1137 96.974 88.3903L95.4952 92.7815C93.8206 97.7539 89.7912 97.4444 88.3532 92.2332L87.0891 87.6514C86.1354 87.8687 85.1822 88.168 84.232 88.5535C83.2819 88.939 82.3491 89.4043 81.435 89.9448L81.3627 95.0685C81.2804 100.897 77.7058 104.29 75.0266 101.083L72.6609 98.2517C71.1246 100.362 69.6997 102.746 68.4043 105.383L69.7527 109.891C71.2848 115.013 69.1226 121.2 65.9203 120.858L63.1016 120.556C62.3396 123.808 61.758 127.166 61.36 130.59L63.7761 133.278C66.5118 136.321 66.3415 143.644 63.4742 146.257ZM88.3858 136.131C88.2884 136.266 88.1933 136.408 88.1015 136.562C87.9709 136.78 87.8513 137.011 87.7406 137.253L75.8181 133.991C77.0134 126.504 79.8858 120.096 83.8189 116.533C84.8071 115.638 85.9961 116.671 86.2368 118.63L88.3858 136.131ZM100.909 125.548L92.6684 135.544C92.3304 135.209 91.971 134.97 91.602 134.828L89.453 117.326C89.2121 115.365 90.049 113.513 91.1543 113.56C94.8785 113.719 98.3908 116.317 101.1 120.672C101.932 122.01 101.834 124.426 100.909 125.548ZM90.9545 137.544C92.2636 137.723 93.2453 139.797 93.1469 142.176C93.0485 144.555 91.9074 146.339 90.5984 146.16C89.2893 145.982 88.3076 143.908 88.406 141.529C88.5043 139.149 89.6452 137.365 90.9545 137.544ZM94.7064 142.614C94.7506 141.86 94.7294 141.095 94.6419 140.349L102.819 130.43C103.724 129.332 104.967 130.033 105.349 131.886C105.602 133.109 105.81 134.378 105.971 135.688C106.709 141.696 106.336 147.682 105.1 152.941C104.653 154.844 103.333 155.453 102.452 154.141L94.7064 142.614ZM86.0136 164.992L90.3691 148.997C91.2728 149.166 92.2048 148.773 92.992 147.802L100.566 159.075C101.4 160.316 101.397 162.639 100.559 163.871C98.752 166.527 96.5891 168.486 94.1672 169.468C91.7672 170.441 89.373 170.35 87.134 169.368C86.0753 168.903 85.5305 166.766 86.0136 164.992ZM77.19 140.422L86.8815 143.073C86.9766 144.081 87.1907 145.061 87.5257 145.939L83.1207 162.115C82.6278 163.924 81.3205 164.419 80.4859 163.086C78.0968 159.268 76.3274 154.09 75.5813 148.015C75.4029 146.562 75.2897 145.111 75.238 143.67C75.1676 141.707 76.1188 140.129 77.19 140.422Z" fill="#659993"/>
<g opacity="0.11">
<path d="M70.9518 139.146C71.7731 119.279 81.3344 104.33 92.2658 105.822C103.197 107.315 111.423 124.692 110.602 144.559C109.781 164.426 100.219 179.375 89.2875 177.883C78.3558 176.39 70.1305 159.013 70.9518 139.146ZM74.8644 139.68C74.2053 155.627 80.8072 169.574 89.5811 170.772C98.3549 171.969 106.029 159.971 106.688 144.025C107.347 128.079 100.746 114.131 91.9715 112.934C83.1979 111.735 75.5235 123.734 74.8644 139.68Z" fill="black"/>
</g>
<path d="M34.2226 312.957L35.7506 315.55C36.7351 317.221 36.5096 320.251 35.2751 321.231C34.5477 321.808 33.5229 321.719 32.1059 319.956L28.8513 313.23L29.38 311.054L32.7821 310.12L34.2226 312.957Z" fill="#1A1A1A"/>
<path d="M31.0275 198.956L38.5944 255.146L33.6212 311.472L28.8987 311.293L27.1757 261.707C27.1757 261.707 10.7963 207.376 11.7336 206.199C12.6706 205.023 31.0275 198.956 31.0275 198.956Z" fill="#4D4D4D"/>
<path d="M9.53059 312.738L10.5436 316.062C11.1961 318.203 10.4669 320.959 9.12651 321.198C8.33653 321.339 7.37704 320.679 6.32852 318.208L4.37549 309.985L5.24796 308.211L8.64273 309.232L9.53059 312.738Z" fill="#1A1A1A"/>
<path d="M25.8565 202.513L23.5092 260.204L9.21097 310.988L4.74951 308.168L11.5335 260.038C11.5335 260.038 5.1831 199.17 6.27425 198.577C7.36565 197.984 25.8565 202.513 25.8565 202.513Z" fill="#4D4D4D"/>
<path d="M127.969 50.354C128.059 48.5735 128.082 46.7994 128.054 45.0515L123.126 42.4358L121.995 33.417L125.809 27.1711C124.997 23.8755 123.975 20.7826 122.777 17.9391L117.943 21.0989L114.106 15.0181L115.171 5.87777C113.526 4.16927 111.759 2.76927 109.896 1.75251L106.982 9.45523L101.914 8.56316L99.8478 0C97.8514 0.378649 95.915 1.16987 94.0692 2.34478L94.2052 11.684L89.8176 16.3887L85.3803 11.6905C83.9182 14.0815 82.6023 16.7816 81.4708 19.7558L84.5939 27.1555L82.5748 35.6444L77.4646 36.591C77.2542 38.393 77.0925 40.2464 76.999 42.1447C76.9198 43.8789 76.8925 45.5901 76.9107 47.2876L81.8383 49.9299L82.9526 58.9552L79.1179 65.1799C79.9334 68.4782 80.9474 71.6005 82.1452 74.4518L86.9871 71.3199L90.8139 77.421L89.728 86.559C91.4256 88.3266 93.2431 89.7757 95.1641 90.8144L98.0658 83.0897L103.137 83.9433L105.212 92.4968C107.208 92.1016 109.143 91.2925 110.988 90.1103L110.837 80.7733L115.213 76.0343L119.657 80.7105C121.12 78.3007 122.434 75.5956 123.558 72.6227L120.412 65.2446L122.415 56.7259L127.529 55.7655C127.728 53.9924 127.882 52.1867 127.969 50.354ZM108.964 63.4366C103.748 69.9323 96.6092 67.5541 93.0189 58.0259C89.4514 48.513 90.7768 35.5577 96.0068 29.0712C101.22 22.5374 108.361 24.9546 111.938 34.4465C115.537 43.9614 114.191 56.939 108.964 63.4366Z" fill="#8C314C"/>
<path d="M116.327 29.0134C111.09 15.1207 100.632 11.5589 92.9856 21.076C85.346 30.6064 83.3927 49.5824 88.6442 63.4976C93.8803 77.3861 104.332 80.9301 111.972 71.413C119.618 61.8959 121.566 42.8988 116.327 29.0134ZM111.042 68.9458C104.151 77.53 94.7232 74.3335 90.0005 61.806C85.2636 49.2547 87.0256 32.1384 93.9163 23.5423C100.813 14.958 110.247 18.1706 114.97 30.7018C119.696 43.2265 117.939 60.3615 111.042 68.9458Z" fill="white"/>
<path d="M90.661 77.1757L90.8139 77.4191L89.8188 86.4971L89.7278 86.5571C91.4253 88.3248 93.2429 89.7738 95.1639 90.8126L95.1278 90.6526L98.0658 83.0878L103.137 83.9414L105.272 92.3482L105.212 92.4954C107.208 92.1002 109.143 91.2911 110.988 90.1089L110.909 90.0255L110.837 80.7719L115.213 76.0329L119.662 80.5524L119.657 80.7091C121.12 78.2993 122.434 75.5942 123.558 72.6214L123.467 72.6447L120.412 65.2432L122.415 56.7245L127.472 55.6367L127.53 55.7641C127.729 53.9919 127.883 52.1862 127.969 50.3535C128.059 48.573 128.082 46.7989 128.054 45.051L127.991 45.1707L126.612 44.395C115.526 67.075 101.514 74.8868 90.661 77.1757Z" fill="#782441"/>
<path d="M111.972 71.4131C114.595 68.1483 116.547 63.7677 117.769 58.8604C116.743 60.1898 115.707 61.4307 114.665 62.5882C113.687 64.9976 112.478 67.159 111.042 68.9459C107.905 72.853 104.244 74.3121 100.739 73.569C99.5421 74.186 98.3581 74.7242 97.1938 75.1904C102.003 78.0871 107.475 77.0158 111.972 71.4131Z" fill="#BB899A"/>
<path d="M94.5154 9.72029L94.5247 2.1803C94.5247 2.1803 97.0975 0.392493 98.9819 0.237549C98.9819 0.237549 95.8588 1.58024 94.5154 9.72029Z" fill="#A63F65"/>
<path opacity="0.14" d="M92.0152 314.478C92.3963 314.148 92.7419 313.745 92.8024 313.32C92.8685 312.857 92.6589 312.391 92.4011 312.132C91.6664 311.392 89.9777 311.753 89.1257 311.741C87.5929 311.717 86.0595 311.742 84.528 311.83C83.8253 311.869 76.1504 312.231 76.872 314.622C77.5046 316.718 81.6034 317.186 82.7389 317.144C84.6029 317.077 86.4785 316.979 88.312 316.427C89.2533 316.144 90.1815 315.742 91.0656 315.166C91.2815 315.026 91.6634 314.783 92.0152 314.478Z" fill="black"/>
<path d="M80.1637 316.803C83.5832 316.803 86.3552 311.765 86.3552 305.551C86.3552 299.336 83.5832 294.298 80.1637 294.298C76.7442 294.298 73.9722 299.336 73.9722 305.551C73.9722 311.765 76.7442 316.803 80.1637 316.803Z" fill="#435B6E"/>
<path d="M77.778 312.251L75.7778 305.146L78.1634 298.446L82.549 298.85L84.5492 305.955L82.1636 312.656L77.778 312.251Z" fill="#2E414C"/>
<path d="M80.1638 309.672C81.4163 309.672 82.4316 307.827 82.4316 305.551C82.4316 303.275 81.4163 301.429 80.1638 301.429C78.9113 301.429 77.896 303.275 77.896 305.551C77.896 307.827 78.9113 309.672 80.1638 309.672Z" fill="#22323A"/>
<path d="M123.105 309.916L109.061 311.612V300.026L123.105 301.593L123.94 305.246C124.024 305.612 124.023 306.024 123.937 306.389L123.105 309.916Z" fill="#2E414C"/>
<path d="M121.019 310.284C120.636 306.889 120.21 303.437 119.739 299.916C119.538 298.413 118.205 298.824 118.421 300.379C118.923 304.011 119.378 307.569 119.786 311.068C119.955 312.514 121.177 311.686 121.019 310.284Z" fill="#435B6E"/>
<path d="M123.334 309.982C122.997 306.794 122.622 303.556 122.209 300.258C122.032 298.852 120.865 299.25 121.053 300.702C121.493 304.096 121.891 307.429 122.25 310.708C122.398 312.065 123.474 311.301 123.334 309.982Z" fill="#435B6E"/>
<path d="M115.841 310.982C115.3 307.171 114.696 303.276 114.024 299.281C113.736 297.567 111.806 297.965 112.12 299.751C112.85 303.906 113.505 307.952 114.091 311.908C114.332 313.537 116.064 312.551 115.841 310.982Z" fill="#435B6E"/>
<path d="M118.381 310.627C117.943 306.998 117.455 303.301 116.914 299.525C116.683 297.91 115.146 298.335 115.395 300.008C115.975 303.912 116.498 307.731 116.968 311.479C117.162 313.028 118.562 312.125 118.381 310.627Z" fill="#435B6E"/>
<path opacity="0.15" d="M123.238 302.173L111.063 302.87L111.387 300.477L123.092 301.707L123.238 302.173Z" fill="white"/>
<path d="M105.389 294.425C103.528 296.319 102.428 301.07 102.428 305.551C102.428 310.031 103.528 314.783 105.389 316.677C108.21 319.548 111.85 315.327 111.85 305.551C111.849 295.774 108.21 291.553 105.389 294.425Z" fill="#5C7789"/>
<path d="M110.268 305.551C110.268 315.327 107.126 319.548 104.691 316.677C103.084 314.783 102.134 310.031 102.134 305.551C102.134 301.07 103.084 296.319 104.691 294.425C107.126 291.553 110.268 295.774 110.268 305.551Z" fill="#435B6E"/>
<path d="M103.509 311.346L102.725 305.234L103.68 299.278L106.267 297.819L108.061 306.094L105.978 313.534L103.509 311.346Z" fill="#2E414C"/>
<path d="M106.177 305.551C106.177 308.156 105.458 309.957 104.691 309.626C104.031 309.341 103.561 307.532 103.561 305.551C103.561 303.57 104.031 301.761 104.691 301.476C105.458 301.145 106.177 302.946 106.177 305.551Z" fill="#22323A"/>
<path d="M164.051 194.957L156.356 171.011L161.19 165.972L168.885 189.918L167.712 194.173C167.516 194.884 167.106 195.313 166.669 195.262L164.051 194.957Z" fill="#2E414C"/>
<path d="M159.028 179.992C160.621 177.258 162.185 174.461 163.719 171.6C164.363 170.399 163.235 168.197 162.59 169.4C161.056 172.26 159.492 175.057 157.899 177.791C157.23 178.939 158.36 181.138 159.028 179.992Z" fill="#435B6E"/>
<path d="M160.685 185.242C162.278 182.508 163.842 179.71 165.376 176.85C166.02 175.649 164.891 173.447 164.246 174.649C162.712 177.51 161.149 180.307 159.555 183.041C158.887 184.189 160.017 186.388 160.685 185.242Z" fill="#435B6E"/>
<path d="M162.342 190.492C163.935 187.758 165.499 184.961 167.033 182.1C167.677 180.899 166.548 178.697 165.903 179.9C164.369 182.76 162.806 185.557 161.212 188.291C160.544 189.439 161.674 191.638 162.342 190.492Z" fill="#435B6E"/>
<path d="M163.999 195.742C165.592 193.008 167.156 190.211 168.69 187.35C169.334 186.149 168.205 183.947 167.56 185.15C166.026 188.01 164.463 190.807 162.869 193.541C162.201 194.689 163.331 196.888 163.999 195.742Z" fill="#435B6E"/>
<path opacity="0.08" d="M167.979 193.238L167.604 194.652L159.594 171.238L161.588 168.605L167.979 193.238Z" fill="white"/>
<path d="M162.452 155.954C160.567 154.387 157.638 155.545 155.399 158.116C153.16 160.686 151.34 164.981 151.332 168.72C151.319 174.391 155.264 177.158 160.149 171.548C165.035 165.939 165.309 158.329 162.452 155.954Z" fill="#5C7789"/>
<path d="M159.352 169.294C154.467 174.903 150.773 172.846 150.98 167.725C151.117 164.348 153.012 160.268 155.251 157.697C157.49 155.126 160.344 153.754 162.1 154.958C164.763 156.784 164.238 163.685 159.352 169.294Z" fill="#435B6E"/>
<path d="M153.306 163.764L155.965 159.139L159.423 157.083L161.456 159.935L158.226 167.24L153.458 168.538L153.306 163.764Z" fill="#2E414C"/>
<path d="M157.547 164.242C156.246 165.737 154.983 165.745 154.762 164.462C154.571 163.358 155.238 161.649 156.228 160.512C157.218 159.376 158.36 159.008 158.834 159.785C159.386 160.689 158.849 162.748 157.547 164.242Z" fill="#22323A"/>
<path d="M162.588 179.093L159.264 176.497L159.833 173.895L162.333 174.768L162.284 173.318L164.975 176.162L164.586 179.007L162.588 179.093Z" fill="#EBCEB1"/>
<path d="M195.525 160.941C195.272 160.69 194.981 160.495 194.652 160.367C193.289 159.838 191.844 160.51 190.614 161.713C188.666 163.618 187.035 166.649 185.218 168.94C183.14 171.561 181.062 174.182 178.984 176.803L164.246 174.65L163.636 180.362L181.15 189.131C183.815 185.408 186.412 181.752 189.186 178.359C191.672 175.317 194.695 172.97 196.273 168.116C197.164 165.375 196.915 162.319 195.525 160.941Z" fill="#B3C4BD"/>
<path d="M156.705 92.0754C154.418 90.7318 153.168 86.2453 153.913 82.0549C154.209 80.3955 154.775 79.0381 155.49 78.0791L149.796 80.5898C147.149 81.757 144.42 82.0746 141.701 81.778C140.06 81.5988 138.371 82.1736 136.793 83.5998L101.727 115.282C99.933 116.903 98.5848 119.354 97.7454 122.221C96.2615 127.289 94.311 131.857 91.8669 135.494L91.366 136.239L94.9237 149.306L97.0162 148.404C99.768 147.217 102.615 147.134 105.411 147.913C107.326 148.446 109.346 147.95 111.213 146.264L145.468 115.314C147.046 113.888 148.318 111.788 149.23 109.301C150.741 105.183 152.527 101.421 154.637 98.2905L158.624 92.3752C157.998 92.5324 157.345 92.4517 156.705 92.0754Z" fill="#748799"/>
<g opacity="0.23">
<g opacity="0.34">
<path d="M152.812 79.342C152.026 82.4629 151.972 86.2737 152.947 89.5184C153.772 92.262 155.241 94.1648 156.772 94.9712L156.308 95.6849C154.652 94.9776 153.161 93.0417 152.282 90.1138C151.26 86.712 151.303 82.7737 152.207 79.5657L152.812 79.342Z" fill="black"/>
</g>
</g>
<g opacity="0.34">
<g opacity="0.34">
<path d="M91.8301 135.542C93.1624 136.486 94.3415 138.235 95.0556 140.685C95.861 143.447 95.8565 146.433 95.383 149.199L96.0048 148.838C96.593 145.936 96.5554 142.952 95.696 140.004C94.9426 137.419 93.7145 135.587 92.3103 134.672L91.8301 135.542Z" fill="black"/>
</g>
</g>
<path d="M163.673 78.893C162.032 73.4301 158.264 71.4199 155.259 74.4024C152.253 77.3852 151.147 84.2317 152.788 89.6946C154.429 95.1575 158.196 97.1676 161.202 94.1852C164.208 91.2023 165.314 84.3554 163.673 78.893ZM156.948 90.5165C155.074 89.4158 154.047 85.7637 154.652 82.359C155.258 78.9544 157.268 77.0868 159.141 78.1875C161.014 79.2881 162.042 82.9403 161.436 86.3449C160.831 89.7491 158.821 91.6171 156.948 90.5165Z" fill="#748799"/>
<path d="M95.3875 140.304C93.863 134.731 90.141 132.459 87.0744 135.23C84.0078 138 82.7577 144.765 84.2822 150.338C85.8067 155.911 89.5286 158.183 92.5953 155.413C95.6619 152.642 96.9119 145.878 95.3875 140.304ZM91.1936 150.835C89.4928 152.331 87.4467 151.037 86.6239 147.946C85.8009 144.855 86.5127 141.137 88.2135 139.641C89.9143 138.145 91.9604 139.439 92.7832 142.53C93.6062 145.621 92.8944 149.339 91.1936 150.835Z" fill="#748799"/>
<path d="M162.693 92.1288C165.159 87.6477 165.159 80.3825 162.693 75.9015C160.227 71.4204 156.23 71.4204 153.764 75.9015C151.299 80.3825 151.299 87.6477 153.764 92.1288C156.23 96.6098 160.227 96.6098 162.693 92.1288Z" fill="#435B6E"/>
<path d="M155.798 90.8462L153.758 83.601L156.191 76.7683L160.663 77.1809L162.702 84.4261L160.27 91.2583L155.798 90.8462Z" fill="#2E414C"/>
<path d="M158.23 88.2163C159.508 88.2163 160.543 86.3346 160.543 84.0135C160.543 81.6924 159.508 79.8108 158.23 79.8108C156.953 79.8108 155.918 81.6924 155.918 84.0135C155.918 86.3346 156.953 88.2163 158.23 88.2163Z" fill="#22323A"/>
<path d="M25.5502 107.985C22.9194 109.58 20.1126 106.091 17.5746 108.396C15.9243 109.895 14.8021 113.67 14.532 117.482C14.4061 119.258 14.447 121.115 14.7996 122.669C15.0284 123.678 15.3795 124.523 15.7734 125.237C16.3001 126.191 16.9128 126.906 17.5698 127.372C17.3156 128.649 17.0084 129.885 16.653 131.058C17.9482 131.501 19.2436 131.944 20.5391 132.386C20.7068 130.782 20.8746 129.179 21.0423 127.575C21.4083 127.368 21.768 127.094 22.1143 126.737C24.2091 124.579 25.7348 119.762 25.8909 114.813C25.9638 112.495 25.7605 110.222 25.5502 107.985Z" fill="#EBCEB1"/>
<path d="M12.2327 118.2C12.1215 117.856 12.0148 117.506 11.9184 117.146C10.7523 112.772 10.1266 107.636 11.8516 103.42C13.6084 99.1268 17.2067 97.2487 19.9568 98.5217C21.4722 99.2231 23.0738 100.166 24.5597 99.2795C25.0042 99.0145 25.435 98.563 25.6869 97.8469C25.9208 97.1831 25.9808 96.3529 26.2222 95.6979C26.7867 94.1659 28.3271 94.528 28.6585 96.2709C28.7556 96.782 28.7619 97.3518 28.9087 97.8222C29.2336 98.8646 30.0261 98.91 30.6796 99.0658C30.8892 99.1158 31.1152 99.2093 31.2484 99.5073C31.4915 100.051 31.26 100.908 30.9255 101.256C30.464 101.737 29.6586 101.602 29.3665 102.543C29.1554 103.224 29.4785 104.529 29.4245 105.314C29.2348 108.065 27.9285 110.564 26.5488 111.5C25.2269 112.397 24.0432 111.423 22.7227 110.809C22.3492 110.635 21.9504 110.21 21.5842 110.118C21.1223 110.002 20.6673 110.413 20.2261 110.591C19.6753 110.814 19.1027 110.688 18.5405 110.604C17.978 110.52 17.3928 110.485 16.8702 110.873C16.3478 111.26 15.9049 112.179 15.9364 113.202C15.9748 114.442 16.6619 115.407 16.6488 116.648C16.6377 117.725 16.111 118.528 15.8857 119.524C15.7115 120.295 15.7064 121.228 15.3883 121.828C15.2471 122.095 15.0562 122.267 14.9278 122.554C14.76 122.93 14.7086 123.482 14.4849 123.745C14.2372 124.036 13.8891 123.806 13.6984 123.397C13.5075 122.989 13.4295 122.451 13.3352 121.943C13.0817 120.578 12.6277 119.421 12.2327 118.2Z" fill="#333333"/>
<path d="M7.52883 151.13C6.79509 157.068 6.41801 163.131 6.14913 169.193C5.90093 174.784 5.21588 180.106 5.21588 185.721C5.21588 198.618 3.32868 210.872 2.42822 223.52C1.92325 230.611 6.13904 228.1 8.96807 227.971C12.5876 227.804 16.2068 227.638 19.8264 227.472C22.7772 227.336 25.7616 227.192 28.6111 225.792C31.1538 224.543 35.6857 221.078 35.6594 215.725C35.644 212.585 34.599 208.646 34.2631 205.494C33.8956 202.046 33.6194 198.568 33.3921 195.081C32.477 181.044 32.4218 166.829 30.9843 152.906C30.103 144.371 28.2849 136.604 23.914 132.23C20.9079 129.221 17.0755 128.554 14.0455 131.482C10.4792 134.928 8.70398 142.379 7.73869 149.507C7.6658 150.047 7.59568 150.588 7.52883 151.13Z" fill="#736357"/>
<path d="M72.0675 152.413L74.6541 163.859C75.0943 165.807 76.3194 166.737 77.3908 165.937C78.4623 165.137 78.9741 162.91 78.5339 160.963L75.9473 149.517C75.5072 147.569 74.2821 146.639 73.2106 147.439C72.1394 148.239 71.6274 150.466 72.0675 152.413Z" fill="#2E414C"/>
<path d="M73.6019 160.419C75.3695 160.158 77.1384 159.929 78.9088 159.732C79.41 159.676 79.5094 161.091 79.0034 161.148C77.2333 161.345 75.4644 161.574 73.6965 161.835C73.1948 161.91 73.0964 160.494 73.6019 160.419Z" fill="#435B6E"/>
<path d="M72.6649 156.273C74.4325 156.012 76.2014 155.783 77.9716 155.586C78.4728 155.53 78.5722 156.945 78.0662 157.002C76.296 157.199 74.5271 157.428 72.7592 157.689C72.2578 157.764 72.1594 156.348 72.6649 156.273Z" fill="#435B6E"/>
<path d="M72.0719 152.476C73.8395 152.215 75.6084 151.986 77.3786 151.788C77.8798 151.733 77.9791 153.148 77.4732 153.205C75.703 153.402 73.9341 153.631 72.1662 153.892C71.6648 153.966 71.5664 152.551 72.0719 152.476Z" fill="#435B6E"/>
<path d="M72.3812 148.789C73.3609 148.423 74.3433 148.077 75.33 147.764C76.0575 147.533 77.1398 146.803 77.8882 147.426C78.6032 148.021 79.0239 149.892 79.3851 151.075C79.8853 152.712 80.3275 154.406 80.7066 156.14C81.0468 157.698 81.3316 159.287 81.575 160.895C81.7655 162.154 81.9241 163.41 81.3697 164.351C80.1668 166.392 77.8998 166.398 76.3268 166.541C75.3903 166.625 75.1504 163.921 76.094 163.836C77.4031 163.717 78.6943 163.57 79.9055 162.705C80.36 162.379 80.301 162.36 80.1688 161.452C80.0695 160.77 79.9539 160.092 79.8313 159.421C79.6164 158.243 79.373 157.079 79.1014 155.936C78.8297 154.792 78.5316 153.667 78.2067 152.568C78.0309 151.973 77.8445 151.264 77.6256 150.723C77.3201 149.968 77.3168 150.06 76.8802 150.067C76.2363 150.078 75.5318 150.474 74.9055 150.682C74.1392 150.935 73.3757 151.208 72.614 151.494C71.7012 151.836 71.4732 149.13 72.3812 148.789Z" fill="#AFBDC6"/>
<path d="M68.985 150.867C69.672 150.427 70.378 150.174 71.0631 149.72C71.169 149.641 71.2747 149.565 71.3797 149.494C72.2862 148.877 72.9379 151.333 72.0284 152.039C71.7933 152.222 71.5567 152.393 71.3176 152.552C70.7645 153.016 70.2898 153.682 70.3647 154.946C70.463 156.606 70.8956 158.352 71.2871 159.853C71.7018 161.443 72.2113 162.939 72.8154 164.318C73.1725 165.133 73.144 165.323 73.6903 165.136C74.1769 164.968 74.6622 164.788 75.1482 164.615C75.6431 164.439 75.9534 165.08 76.0091 165.791C76.2008 166.32 76.2159 167.028 75.8631 167.52C74.8176 168.977 73.3773 170.459 72.0935 168.823C71.4344 167.983 71.1317 166.384 70.7819 165.135C70.3619 163.637 69.9419 162.138 69.522 160.64C68.9287 158.523 67.6406 155.509 67.9049 152.997C68.0192 151.907 68.4285 151.224 68.985 150.867Z" fill="#2E414C"/>
<path d="M83.3015 157.656C85.3242 157.033 87.281 156.135 89.2597 155.157C90.5837 154.501 91.8885 153.922 93.1653 153.011C94.4229 152.113 95.6666 151.148 96.9402 150.326C97.8923 149.712 100.853 147.247 101.554 149.464C101.979 150.805 101.265 152.579 100.847 153.614C100.228 155.148 99.5772 156.71 98.9071 158.154C96.8985 162.484 94.5831 166.341 92.0325 169.595C90.0152 172.169 87.8212 174.387 85.4541 175.596C85.1814 175.735 84.9065 175.861 84.6293 175.972C84.5132 176.019 84.3891 176.062 84.2779 175.985C84.1145 175.873 84.034 175.546 83.9707 175.25C82.9456 170.456 82.0825 165.548 81.3873 160.563C81.2986 159.927 81.2153 159.231 81.3654 158.635C81.6096 157.665 82.8074 157.808 83.3015 157.656Z" fill="#AFBDC6"/>
<path d="M69.3196 151.187C68.9193 151.325 68.7082 152.1 68.8742 152.821L71.9209 166.043C72.0566 166.632 72.4009 166.979 72.7262 166.855L75.9657 165.615L78.8297 178.186C78.7455 178.003 77.7411 178.104 77.3842 177.892C76.7476 177.512 76.2015 177.431 75.5285 177.387C71.2399 177.105 66.7047 177.389 63.2396 182.608C57.6665 191.001 52.2042 199.665 46.7394 208.29C41.1956 217.039 35.7025 225.897 30.3212 234.976C30.2135 235.157 30.1058 235.339 29.9983 235.521C27.3373 240.018 24.7035 244.568 22.0618 249.102C20.6882 251.46 19.3128 253.814 17.9303 256.154C16.4442 258.671 15.5581 261.224 13.3016 260.224C11.2875 259.332 9.22606 257.013 7.82819 254.265C6.68054 252.009 5.87895 249.305 5.42392 246.351C4.93258 243.162 4.10602 239.218 5.86079 236.892C6.6306 235.872 7.39133 234.858 8.12179 233.743C19.4137 217.807 30.9167 201.907 42.0159 185.375C42.8026 184.204 43.5898 183.032 44.3782 181.865C47.294 177.548 52.1192 169.854 54.9571 165.362C60.486 156.612 60.9534 150.567 63.9567 140.369C65.1692 136.252 66.2901 132.047 67.3492 127.793L72.4349 150.115L69.3196 151.187Z" fill="#435B6E"/>
<path d="M77.167 115.651C81.5107 113.634 92.6668 122.18 95.5879 124.01C98.509 125.841 96.7989 130.126 96.7989 130.126C96.2939 130.325 95.7905 130.534 95.287 130.746C93.9255 131.318 92.5672 131.919 91.2148 132.558C90.226 133.025 89.2395 133.508 88.2543 133.999C87.7617 134.244 87.2681 134.485 86.7773 134.74C86.3845 134.945 86.0327 135.359 85.646 135.626C85.2157 135.924 84.7849 136.222 84.3702 136.585C83.5792 137.278 82.7279 138.221 82.1074 139.364C81.8895 139.766 81.5657 140.783 81.7142 141.407C81.7319 141.481 89.8658 175.629 89.8658 175.629C89.9624 176.034 89.8116 176.492 89.5695 176.53L78.83 178.186C78.8315 178.184 79.3021 177.432 79.0943 174.984C78.9523 173.309 78.7081 171.663 78.4355 170.044C78.1507 168.353 77.8177 166.692 77.4775 165.036L80.1731 164.005C81.0017 163.687 81.4171 162.046 81.0433 160.565L78.1734 149.186C78.0329 148.628 77.7042 148.303 77.3907 148.411L74.2436 149.494C72.3847 141.202 70.2987 133.079 67.9951 125.165C67.7825 126.043 67.5663 126.919 67.3486 127.794L67.1199 126.789C68.6948 122.71 72.8233 117.668 77.167 115.651Z" fill="#C1D0DB"/>
<path d="M77.4777 165.037C77.8179 166.693 78.1509 168.354 78.4357 170.045C78.7083 171.663 78.9525 173.309 79.0945 174.984C79.3021 177.433 78.8317 178.185 78.8302 178.186L75.9661 165.616L77.4777 165.037Z" fill="#C1D0DB"/>
<path d="M74.2436 149.494L72.4344 150.116L67.3486 127.794C67.5663 126.919 67.7825 126.043 67.9951 125.165C70.299 133.079 72.3849 141.202 74.2436 149.494Z" fill="#C1D0DB"/>
<path d="M47.7225 208.08C47.6223 208.238 47.5225 208.396 47.4223 208.554C41.5171 217.874 35.6661 227.309 29.9339 236.98C29.8191 237.173 29.7046 237.367 29.5901 237.561C26.7558 242.351 23.9502 247.197 21.1363 252.028C19.6731 254.539 18.2082 257.047 16.7354 259.54C15.1524 262.22 14.2085 264.939 11.805 263.875C9.6598 262.924 7.46388 260.454 5.9747 257.527C4.75214 255.124 3.89834 252.244 3.4138 249.098C2.89042 245.7 2.00988 241.499 3.87891 239.022C4.69892 237.935 5.50909 236.855 6.28722 235.667C17.007 220.539 28.3648 204.723 38.9784 189.151L47.7225 208.08Z" fill="#E29530"/>
<path d="M9.56017 243.399C8.23015 245.429 8.05712 249.033 9.17375 251.45C10.2904 253.868 12.2737 254.182 13.6037 252.153C14.9337 250.123 15.1067 246.519 13.9901 244.102C12.8735 241.684 10.8902 241.37 9.56017 243.399Z" fill="white"/>
<path opacity="0.08" d="M46.6032 199.204L43.9402 193.439C43.4413 192.359 43.5177 190.75 44.1119 189.844C47.9131 184.046 60.5206 164.72 61.2548 162.355C61.9038 160.264 62.601 158.219 63.2893 156.17C63.6831 154.998 64.9243 149.709 65.5892 149.281C67.0829 148.321 68.0699 155.921 68.4722 157.677C69.2702 161.162 70.0428 164.666 70.8053 168.178C71.0432 169.274 70.6451 170.478 70.0012 170.613C68.5776 170.913 66.2712 171.73 64.6153 173.956C62.4794 176.827 52.0295 193.878 48.6183 199.461C48.0273 200.428 47.1142 200.311 46.6032 199.204Z" fill="white"/>
<path d="M9.51415 243.232C10.9269 241.076 13.0411 241.411 14.2271 243.979C15.4131 246.547 15.2287 250.389 13.816 252.544C12.4032 254.7 10.289 254.365 9.10301 251.798C7.91702 249.23 8.10141 245.387 9.51415 243.232ZM9.74141 243.724C8.47799 245.652 8.31303 249.088 9.37366 251.385C10.4343 253.681 12.3253 253.981 13.5889 252.053C14.8524 250.124 15.0173 246.688 13.9567 244.392C12.8958 242.095 11.0048 241.796 9.74141 243.724Z" fill="#435B6E"/>
<path d="M37.3934 197.973L38.6871 201.426L40.6868 202.1L40.828 202.933L40.2671 203.274L41.844 204.686L42.4335 207.026L41.4879 209.952L39.6756 211.233L38.1471 209.2L37.2342 205.487L35.3508 200.896L37.3934 197.973Z" fill="#EBCEB1"/>
<path d="M38.9033 197.531L25.4112 164.073L26.3917 144.649L15.3028 143.503L15.2693 168.717L16.7935 175.356L35.3353 204.79L38.9033 197.531Z" fill="#736357"/>
<path d="M95.8291 155.916C98.2947 151.435 98.2947 144.17 95.8291 139.689C93.3635 135.208 89.366 135.208 86.9004 139.689C84.4348 144.17 84.4348 151.435 86.9004 155.916C89.366 160.397 93.3635 160.397 95.8291 155.916Z" fill="#435B6E"/>
<path d="M88.9336 154.635L86.894 147.39L89.3268 140.557L93.7989 140.97L95.8382 148.214L93.4056 155.047L88.9336 154.635Z" fill="#2E414C"/>
<path d="M91.3662 152.005C92.6433 152.005 93.6786 150.124 93.6786 147.803C93.6786 145.481 92.6433 143.6 91.3662 143.6C90.089 143.6 89.0537 145.481 89.0537 147.803C89.0537 150.124 90.089 152.005 91.3662 152.005Z" fill="#22323A"/>
<path opacity="0.27" d="M115.572 128.46C115.966 124.047 114.317 119.889 111.889 119.173C109.461 118.457 107.173 121.454 106.779 125.866C106.385 130.279 108.034 134.437 110.462 135.153C112.89 135.87 115.178 132.873 115.572 128.46Z" fill="#414C56"/>
<path opacity="0.27" d="M124.995 123.44C127.455 123.44 129.449 119.815 129.449 115.345C129.449 110.874 127.455 107.25 124.995 107.25C122.535 107.25 120.541 110.874 120.541 115.345C120.541 119.815 122.535 123.44 124.995 123.44Z" fill="#414C56"/>
<path opacity="0.27" d="M138.535 110.921C140.995 110.921 142.989 107.297 142.989 102.826C142.989 98.3555 140.995 94.7314 138.535 94.7314C136.075 94.7314 134.081 98.3555 134.081 102.826C134.081 107.297 136.075 110.921 138.535 110.921Z" fill="#414C56"/>
<path opacity="0.1091" d="M189.892 17.4045C189.864 17.7878 189.836 18.1705 189.808 18.5538C189.801 18.6551 190.384 18.5895 190.379 18.5648C190.351 18.4227 190.323 18.2806 190.296 18.138C190.255 17.9317 189.878 17.6021 189.892 17.4045Z" fill="#B3C4BD"/>
<path opacity="0.1091" d="M190.019 16.4085C190.019 16.6707 190.019 16.9329 190.019 17.1951C190.019 17.2708 190.59 17.2721 190.59 17.1974C190.59 16.9343 190.59 16.6711 190.59 16.408C190.59 16.408 190.019 16.4076 190.019 16.4085Z" fill="#B3C4BD"/>
<path opacity="0.1091" d="M190.606 17.0134C190.488 17.4453 190.37 17.8775 190.252 18.3094C190.244 18.3364 190.836 18.3786 190.823 18.3002C190.75 17.8716 190.679 17.4425 190.606 17.0134Z" fill="#B3C4BD"/>
<path opacity="0.1091" d="M190.868 19.0313C190.836 19.1702 190.804 19.3091 190.772 19.448C190.77 19.46 191.352 19.5264 191.343 19.4169C191.311 19.0304 191.28 18.6435 191.248 18.2571C191.264 18.4501 190.913 18.8315 190.868 19.0313Z" fill="#B3C4BD"/>
<path opacity="0.1091" d="M191.113 17.0378C191.012 17.4788 190.91 17.9194 190.809 18.3604C190.8 18.3989 191.393 18.3929 191.38 18.3269C191.291 17.8969 191.202 17.4674 191.113 17.0378Z" fill="#B3C4BD"/>
<path opacity="0.1091" d="M189.465 16.3818C189.444 16.534 189.424 16.6866 189.404 16.8388C189.398 16.8833 189.978 16.9424 189.974 16.8686C189.954 16.4927 189.934 16.1164 189.914 15.7405C189.924 15.933 189.492 16.176 189.465 16.3818Z" fill="#B3C4BD"/>
<path opacity="0.1091" d="M189.666 16.928C189.571 17.3584 189.476 17.7893 189.381 18.2198C189.368 18.2785 189.961 18.2959 189.951 18.25C189.856 17.8095 189.761 17.369 189.666 16.928Z" fill="#B3C4BD"/>
<path opacity="0.1091" d="M189.96 18.9438C189.959 19.2267 189.958 19.5095 189.958 19.7924C189.957 19.8726 190.529 19.8744 190.529 19.797C190.528 19.5545 190.527 19.3115 190.527 19.069C190.526 19.0254 189.959 18.9837 189.96 18.9438Z" fill="#B3C4BD"/>
<path opacity="0.1091" d="M190.707 15.835C190.686 16.209 190.666 16.5836 190.646 16.9576C190.641 17.0374 191.223 16.9787 191.216 16.9297C191.196 16.7784 191.176 16.6271 191.156 16.4763C191.128 16.2705 190.696 16.0275 190.707 15.835Z" fill="#B3C4BD"/>
<path opacity="0.1091" d="M189.592 18.1448C189.568 18.517 189.545 18.8888 189.522 19.261C189.515 19.3628 190.097 19.3174 190.092 19.2853C190.069 19.1322 190.046 18.9791 190.022 18.8255C189.991 18.6169 189.58 18.3414 189.592 18.1448Z" fill="#B3C4BD"/>
<path opacity="0.1091" d="M190.318 15.4536C190.314 15.7635 190.311 16.0729 190.308 16.3828C190.307 16.4507 190.88 16.4442 190.879 16.3718C190.876 16.1559 190.872 15.9404 190.869 15.7245C190.867 15.6301 190.317 15.5416 190.318 15.4536Z" fill="#B3C4BD"/>
<path opacity="0.1091" d="M189.543 16.2581C189.408 16.672 189.272 17.0855 189.137 17.4994C189.132 17.5146 189.717 17.6191 189.707 17.5407C189.653 17.1135 189.598 16.6858 189.543 16.2581Z" fill="#B3C4BD"/>
</svg>
