<?xml version="1.0" encoding="utf-8"?>
<!-- Generator: Adobe Illustrator 27.5.0, SVG Export Plug-In . SVG Version: 6.00 Build 0)  -->
<svg version="1.1" xmlns="http://www.w3.org/2000/svg" xmlns:xlink="http://www.w3.org/1999/xlink" x="0px" y="0px"
	 viewBox="0 0 1122 800" style="enable-background:new 0 0 1122 800;" xml:space="preserve">
<g id="background">
	<rect y="0" style="fill:#FFFFFF;" width="1122" height="800"/>
</g>
<g id="shadow">
	<path style="opacity:0.08;" d="M601.712,706.41c14.972-1.353,29.932-2.82,44.892-4.286c49.452-4.845,98.915-7.881,148.464-10.841
		c35.181-2.102,70.586-3.217,105.741-0.129c30.227,2.655,66.726,7.987,90.07,27.889c13.093,11.163,7.525,25.261-11.729,34.768
		c-20.342,10.044-46.164,10.336-68.655,11.74c-211.443,13.202-421.752-4.123-633.263-3.403c-29.927,0.102-60.331,1.77-90.234,2.894
		c-18.165,0.683-41.777,3.589-59.625-0.611c-11.276-2.653-10.435-11.908-1.852-16.703c15.667-8.753,39.273-9.746,57.101-10.737
		c46.629-2.593,93.24-5.457,139.83-8.587C415.632,722.144,508.728,714.812,601.712,706.41z"/>
</g>
<g id="object">
	<g id="XMLID_10_">
		<g id="XMLID_13_">
			<g>
				<polygon style="fill:#EBCEB1;" points="297.699,421.65 305.651,426.102 313.402,423.878 314.714,425.254 313.056,426.912 
					320.025,426.877 324.395,430.403 323.89,437.788 318.708,443.496 311.305,442.233 304.451,436.599 293.298,430.97 				"/>
			</g>
		</g>
		<g id="XMLID_11_">
			<g>
				<path style="fill:#736357;" d="M302.626,418.115c-13.149-6.773-26.298-13.546-39.447-20.318
					c-9.251-4.765-18.502-9.53-27.753-14.295c-3.05-1.571-6.276-2.984-9.219-4.749c-5.314-3.188-8.12-8.565-13.09-12.37
					c-3.917-2.998-8.905-4.936-13.777-4.167c-7.546,1.191-12.876,8.694-13.824,16.274c-0.617,4.932,0.275,9.843,1.709,14.555
					c0.576,1.893,2.011,9.363,3.497,10.646l11.873,10.264l94.442,24.643C297.036,438.599,302.626,418.115,302.626,418.115z"/>
			</g>
		</g>
	</g>
	<g>
		<g>
			<g>
				<g>
					<polygon style="fill:#EBCEB1;" points="917.571,519.394 903.155,623.101 908.274,698.02 897.775,701.682 888.377,632.454 
						868.321,505.949 					"/>
				</g>
			</g>
			<g>
				<polygon style="fill:#514943;" points="897.797,703.795 896.638,711.556 899.271,726.308 907.94,725.488 909.572,703.636 
					908.296,700.133 				"/>
			</g>
		</g>
		<g>
			<g>
				<polygon style="fill:#EBCEB1;" points="832.625,516.311 837.259,604.27 856.862,727.237 867.487,727.094 862.763,613.082 
					876.544,507.975 				"/>
			</g>
			<g>
				<polygon style="fill:#514943;" points="857.037,725.134 843.458,735.089 845.152,742.527 870.014,736.601 867.992,725.856 				
					"/>
			</g>
		</g>
		<g>
			<polygon style="fill:#C7B299;" points="830.283,529.494 830.726,631.593 843.219,700.434 871.682,695.827 870.854,616.266 
				882,532.256 873.835,515.635 832.666,520.308 			"/>
		</g>
		<g>
			<polygon style="fill:#C7B299;" points="880.786,617.769 889.598,690.18 914.35,686.327 918.131,624.013 926.803,540.76 
				917.571,525.538 874.5,529.542 			"/>
		</g>
		<g>
			<g>
				<path style="fill:#EACDB0;" d="M928.472,341.597c-1.896-17.973-24.749-28.999-34.504-10.68
					c-2.932,5.505-5.269,11.511-5.401,17.756c-0.132,6.246,2.247,12.776,7.225,16.417c0.028,0.021,0.058,0.037,0.087,0.057
					c-0.547,1.512-1.093,3.023-1.639,4.535c-0.118,0.324-0.235,0.685-0.11,1.006c0.143,0.365,0.543,0.538,0.905,0.675
					c1.768,0.67,3.536,1.34,5.304,2.009c0.876,0.332,1.791,0.67,2.723,0.573c2.041-0.212,3.33-2.368,3.847-4.388
					c0.123-0.483,0.224-0.976,0.321-1.471C918.845,366.643,929.71,353.346,928.472,341.597z"/>
			</g>
			<g>
				<g>
					<path style="fill:#333333;" d="M893.423,336.283c-3.391,3.968-4.055,9.356-4.124,14.402c-0.067,4.933-1.326,9.573-0.938,14.528
						c-0.628,0.669-1.699-0.002-2.33-0.661c-3.703-3.863-7.354-7.779-10.95-11.745c-0.362-0.399-0.733-0.815-0.901-1.33
						c-0.214-0.653-0.072-1.367,0.081-2.039c3.036-13.275,9.787-22.274,18.931-31.711c4.44-4.582,15.068-8.769,19.661-1.783
						c1.046,1.591,1.208,3.606,1.248,5.523c0.024,1.145,0.01,2.323-0.412,3.387c-1.684,4.242-5.761,3.366-9.2,4.279
						C900.248,330.258,896.285,332.934,893.423,336.283z"/>
				</g>
				<g>
					<path style="fill:#333333;" d="M922.666,349.825c-0.594,3.868-2.172,8.122-3.893,11.601c-0.596,1.205-3.475,3.778-3.683,4.624
						c-0.601,2.451,3.612,9.071,4.609,11.446c8.671-3.208,17.342-6.416,26.013-9.624c0.664-0.246,1.361-0.515,1.811-1.07
						c0.408-0.504,0.55-1.171,0.672-1.81c2.39-12.576,0.88-24.442-2.183-36.621c-3.061-12.173-12.438-23.124-25.286-24.283
						c-10.381-0.936-18.738,5.544-16.606,16.715c1.61,8.434,11.299,11.657,15.876,17.953
						C922.87,342.708,923.32,346.263,922.666,349.825z"/>
				</g>
			</g>
		</g>
		<g>
			<path style="fill:#B3C4BD;" d="M917.203,375.34c0.198,0.102,0.395,0.205,0.59,0.309c9.332,4.989,14.982,22.493,18.191,32.764
				c8.282,26.513,10.032,53.213,7.524,80.941c-1.35,14.93-3.372,29.796-5.698,44.604c-0.643,4.091-8.883,40.384-7.102,41.518
				c-18.27-11.625-36.928-22.794-56.926-30.719c-19.999-7.925-41.601-0.911-63.023,0.967
				c12.108-45.848,27.269-103.758,46.093-147.098c2.251-5.184,4.021-10.795,7.002-15.593c3.433-5.526,7.708-6.719,13.268-9.51
				c1.905-0.956,3.823-1.918,5.858-2.49C893.705,368.02,907.35,370.267,917.203,375.34z"/>
		</g>
	</g>
	<g>
		<g>
			<polygon style="fill:#EBCEB1;" points="819.504,329.109 817.248,314.946 823.25,313.82 826.939,323.214 829.508,321.361 
				829.964,333.691 823.897,335.706 			"/>
		</g>
		<g>
			<path style="fill:#B3C4BD;" d="M922.758,418.318c-0.074-1.14-0.33-2.342-0.791-3.592c-1.912-5.184-6.213-9.243-11.037-11.963
				c-7.639-4.307-16.683-6.241-24.757-9.656c-9.235-3.907-18.47-7.815-27.706-11.722l-27.257-51.897l-11.823,4.615
				c0,0,20.939,68.911,20.939,68.911c12.51,4.591,24.753,9.029,36.887,14.369c10.877,4.787,21.609,12.179,33.903,11.809
				C918.057,428.982,923.163,424.584,922.758,418.318z"/>
		</g>
	</g>
	<g>
		<g>
			<g>
				<g>
					<path style="fill:#D1B337;" d="M710.404,221.137c-6.151,18.055,3.499,37.678,21.555,43.829
						c18.055,6.151,37.678-3.499,43.829-21.554s-3.499-37.678-21.554-43.829C736.178,193.432,716.555,203.082,710.404,221.137z
						 M731.558,228.343c2.171-6.372,9.096-9.778,15.469-7.607c6.372,2.171,9.778,9.097,7.607,15.469
						c-2.171,6.372-9.097,9.778-15.469,7.607C732.793,241.641,729.387,234.716,731.558,228.343z"/>
				</g>
				<g>
					<path style="fill:#EFD154;" d="M635.732,214.32c-1.213,7.197-1.68,14.397-1.446,21.507l-17.89,6.158l5.842,29.538l18.91-1.117
						c2.526,6.74,5.711,13.217,9.507,19.332l-12.429,14.295l19.828,22.66l15.799-10.41c5.489,4.526,11.477,8.551,17.917,11.985
						l-3.615,18.585l28.502,9.71l8.484-16.927c7.197,1.212,14.397,1.679,21.507,1.446l6.158,17.89l29.538-5.842l-1.117-18.91
						c6.74-2.526,13.218-5.711,19.332-9.507l14.295,12.429l22.66-19.828l-10.41-15.799c4.526-5.489,8.552-11.476,11.985-17.917
						l18.585,3.615l9.71-28.502l-16.927-8.484c1.213-7.197,1.679-14.397,1.446-21.507l17.89-6.158l-5.842-29.538l-18.91,1.117
						c-2.526-6.74-5.711-13.217-9.507-19.332l12.429-14.295l-19.828-22.66l-15.799,10.41c-5.489-4.526-11.476-8.551-17.917-11.985
						l3.615-18.585l-28.502-9.71l-8.483,16.927c-7.198-1.213-14.397-1.68-21.508-1.446l-6.158-17.89l-29.538,5.842l1.117,18.91
						c-6.74,2.525-13.218,5.711-19.332,9.507l-14.295-12.429l-22.66,19.828l10.41,15.799c-4.526,5.489-8.551,11.476-11.985,17.917
						l-18.586-3.615l-9.71,28.502L635.732,214.32z M824.802,252.443l-56.247-19.162c0.343-8.582-3.708-16.818-10.714-21.786
						l19.162-56.247C814.403,171.664,834.633,212.8,824.802,252.443z M742.089,257.733c8.582,0.343,16.818-3.707,21.786-10.714
						l56.247,19.162c-16.415,37.399-57.552,57.63-97.195,47.799L742.089,257.733z M739.165,243.812
						c-6.372-2.171-9.778-9.096-7.607-15.469s9.096-9.778,15.469-7.607c6.372,2.171,9.778,9.097,7.607,15.469
						C752.463,242.577,745.537,245.983,739.165,243.812z M661.39,212.105l56.247,19.162c-0.343,8.582,3.707,16.818,10.714,21.786
						L709.188,309.3C671.789,292.884,651.559,251.748,661.39,212.105z M666.07,198.367c16.415-37.399,57.552-57.63,97.194-47.799
						l-19.162,56.247c-8.582-0.343-16.818,3.707-21.786,10.714L666.07,198.367z"/>
				</g>
				<g>
					<g>
						<path style="fill:#C1B23F;" d="M650.081,200.587c17.473-51.289,73.414-78.8,124.702-61.327
							c51.289,17.473,78.8,73.414,61.327,124.703c-17.473,51.288-73.414,78.799-124.703,61.326
							C660.119,307.816,632.608,251.875,650.081,200.587z M654.001,201.922c-16.736,49.126,9.616,102.71,58.742,119.446
							c49.127,16.736,102.711-9.615,119.447-58.741c16.736-49.127-9.616-102.711-58.743-119.447
							C724.321,126.443,670.737,152.795,654.001,201.922z"/>
					</g>
				</g>
				<g>
					<path style="fill:#D1B337;" d="M659.692,221.1c-4.959,36.719,14.921,73.024,49.497,88.2l6.768-19.865
						c3.978,3.459,7.977,6.744,11.973,9.862l-5.002,14.684c9.589,2.378,19.263,2.982,28.656,2.025
						c11.053,7.057,21.662,12.864,31.236,17.575c-0.532,0.209-1.055,0.441-1.591,0.642l1.117,18.91l-29.538,5.842l-6.158-17.89
						c-7.111,0.234-14.31-0.233-21.507-1.446l-8.484,16.927l-28.502-9.71l3.615-18.585c-6.441-3.434-12.428-7.459-17.917-11.985
						l-15.799,10.41l-19.828-22.66l12.429-14.295c-3.796-6.115-6.982-12.592-9.508-19.332l-18.91,1.117l-5.842-29.538l17.89-6.158
						c-0.233-7.11,0.233-14.31,1.446-21.507l-16.927-8.483l9.71-28.502l12.63,2.456C646.278,194.741,652.568,208.482,659.692,221.1z
						"/>
				</g>
				<g>
					<path style="fill:#ADA03B;" d="M652.391,207.155c-13.226,47.642,12.965,98.07,60.352,114.214
						c17.332,5.905,35.217,6.44,51.845,2.51c1.756,1.007,3.492,1.98,5.208,2.923c-18.541,5.266-38.802,5.16-58.388-1.513
						c-50.972-17.365-78.451-72.725-61.637-123.752C650.627,203.429,651.498,205.305,652.391,207.155z"/>
				</g>
			</g>
			<g>
				<path style="fill:#FAEB7D;" d="M790.677,134.002c0.104,0.353,3.58-14.818,3.58-14.818l-22.83-7.638
					C771.427,111.546,786.414,119.525,790.677,134.002z"/>
			</g>
		</g>
	</g>
	<g>
		<g>
			<g>
				<path style="fill:#659993;" d="M371.896,368.055l-9.995,5.012c0.474,3.781,1.127,7.56,1.968,11.327
					c0.841,3.767,1.857,7.465,3.035,11.089l11.177,0.287c12.714,0.327,20.116,14.498,13.121,25.12l-6.177,9.379
					c4.604,6.09,9.805,11.74,15.556,16.876l9.835-5.346c11.173-6.074,24.67,2.498,23.923,15.194l-0.658,11.175
					c7.093,3.021,14.418,5.327,21.888,6.905l5.863-9.579c6.64-10.847,22.614-10.172,28.315,1.196l5.012,9.995
					c3.781-0.474,7.56-1.127,11.327-1.968c3.767-0.841,7.465-1.857,11.089-3.035l0.287-11.177
					c0.326-12.714,14.498-20.116,25.12-13.121l9.38,6.177c6.09-4.604,11.74-9.805,16.876-15.556l-5.346-9.835
					c-6.074-11.174,2.498-24.67,15.194-23.923l11.175,0.658c3.021-7.093,5.327-14.418,6.905-21.888l-9.579-5.863
					c-10.847-6.64-10.172-22.614,1.197-28.315l9.995-5.012c-0.474-3.781-1.127-7.56-1.968-11.327
					c-0.841-3.767-1.857-7.465-3.035-11.089l-11.177-0.287c-12.714-0.327-20.116-14.498-13.122-25.12l6.177-9.379
					c-4.604-6.091-9.805-11.74-15.556-16.876l-9.835,5.346c-11.174,6.074-24.67-2.498-23.923-15.193l0.658-11.175
					c-7.093-3.021-14.418-5.327-21.888-6.905l-5.863,9.579c-6.639,10.847-22.614,10.172-28.315-1.196l-5.012-9.995
					c-3.781,0.474-7.56,1.127-11.327,1.968c-3.767,0.841-7.465,1.856-11.089,3.035l-0.287,11.177
					c-0.326,12.714-14.498,20.116-25.12,13.121l-9.379-6.177c-6.091,4.604-11.74,9.805-16.876,15.556l5.346,9.835
					c6.074,11.173-2.498,24.67-15.194,23.923l-11.175-0.658c-3.021,7.093-5.327,14.418-6.905,21.888l9.579,5.863
					C383.939,346.38,383.264,362.354,371.896,368.055z M470.661,345.965c-0.386,0.294-0.763,0.605-1.127,0.94
					c-0.518,0.476-0.992,0.981-1.431,1.507l-47.268-7.114c4.739-16.333,16.127-30.311,31.72-38.084
					c3.918-1.953,8.632,0.3,9.586,4.573L470.661,345.965z M520.312,322.879l-32.672,21.806c-1.34-0.73-2.765-1.252-4.228-1.563
					l-8.52-38.179c-0.955-4.278,2.363-8.318,6.745-8.215c14.765,0.347,28.69,6.015,39.43,15.514
					C524.368,315.161,523.978,320.432,520.312,322.879z M480.845,349.048c5.19,0.39,9.082,4.914,8.692,10.104
					c-0.39,5.19-4.914,9.082-10.104,8.692c-5.19-0.39-9.082-4.914-8.692-10.104C471.131,352.549,475.654,348.658,480.845,349.048z
					 M495.72,360.107c0.175-1.645,0.091-3.313-0.256-4.94l32.418-21.637c3.59-2.396,8.518-0.866,10.033,3.175
					c1,2.667,1.828,5.436,2.466,8.295c2.924,13.104,1.445,26.164-3.454,37.635c-1.773,4.152-7.004,5.48-10.497,2.619L495.72,360.107
					z M461.256,408.923l17.268-34.892c3.583,0.37,7.278-0.488,10.399-2.606l30.028,24.591c3.307,2.708,3.296,7.775-0.028,10.463
					c-7.164,5.794-15.739,10.066-25.341,12.209c-9.515,2.123-19.007,1.925-27.884-0.218
					C461.501,417.456,459.341,412.793,461.256,408.923z M426.274,355.326l38.423,5.783c0.377,2.199,1.226,4.336,2.554,6.251
					l-17.464,35.287c-1.954,3.948-7.137,5.027-10.446,2.118c-9.472-8.328-16.487-19.624-19.445-32.876
					c-0.707-3.169-1.156-6.335-1.361-9.477C418.256,358.128,422.027,354.687,426.274,355.326z"/>
			</g>
		</g>
		<g style="opacity:0.11;">
			<g>
				<path d="M401.541,352.542c3.256-43.339,41.163-75.95,84.502-72.694c43.339,3.256,75.949,41.163,72.694,84.502
					c-3.255,43.339-41.163,75.949-84.502,72.694C430.895,433.788,398.285,395.881,401.541,352.542z M417.053,353.707
					c-2.613,34.786,23.561,65.211,58.346,67.824c34.785,2.613,65.211-23.561,67.824-58.346
					c2.613-34.786-23.561-65.211-58.347-67.824C450.092,292.747,419.666,318.921,417.053,353.707z"/>
			</g>
		</g>
	</g>
	<g>
		<g>
			<g>
				<path style="fill:#1A1A1A;" d="M255.924,731.701l6.058,5.657c3.903,3.644,3.009,10.254-1.885,12.391
					c-2.884,1.259-6.947,1.065-12.565-2.78l-12.903-14.673l2.096-4.747l13.488-2.038L255.924,731.701z"/>
			</g>
		</g>
		<g>
			<g>
				<path style="fill:#4D4D4D;" d="M243.257,483.015l30,122.574L253.54,728.462l-18.723-0.392l-6.831-108.168
					c0,0-64.938-118.52-61.222-121.087C170.479,496.249,243.257,483.015,243.257,483.015z"/>
			</g>
		</g>
	</g>
	<g>
		<g>
			<g>
				<path style="fill:#1A1A1A;" d="M158.03,731.223l4.016,7.251c2.587,4.671-0.304,10.682-5.618,11.204
					c-3.132,0.307-6.936-1.132-11.093-6.523l-7.743-17.939l3.459-3.868l13.459,2.226L158.03,731.223z"/>
			</g>
		</g>
		<g>
			<g>
				<path style="fill:#4D4D4D;" d="M222.755,490.774l-9.306,125.848l-56.687,110.784l-17.688-6.153L165.97,616.26
					c0,0-25.177-132.778-20.851-134.072C149.446,480.894,222.755,490.774,222.755,490.774z"/>
			</g>
		</g>
	</g>
	<g>
		<g>
			<g>
				<g>
					<path style="fill:#8C314C;" d="M627.591,158.848c0.358-3.884,0.449-7.754,0.337-11.567l-19.536-5.706l-4.482-19.674
						l15.118-13.625c-3.22-7.189-7.27-13.936-12.019-20.139l-19.167,6.893l-15.21-13.265l4.221-19.939
						c-6.522-3.727-13.527-6.781-20.913-8.999L544.389,69.63l-20.096-1.946l-8.19-18.68c-7.915,0.826-15.592,2.552-22.91,5.115
						l0.539,20.373l-17.395,10.263l-17.592-10.249c-5.797,5.216-11.014,11.106-15.5,17.594l12.382,16.142l-8.005,18.518
						l-20.26,2.065c-0.834,3.931-1.475,7.974-1.846,12.115c-0.314,3.783-0.422,7.516-0.35,11.219l19.536,5.764l4.418,19.688
						l-15.203,13.579c3.233,7.195,7.253,14.006,12.002,20.226l19.196-6.832l15.172,13.309l-4.305,19.934
						c6.73,3.856,13.936,7.017,21.552,9.283l11.504-16.851l20.104,1.862l8.227,18.659c7.914-0.862,15.584-2.627,22.899-5.206
						l-0.598-20.368l17.349-10.338l17.618,10.201c5.804-5.257,11.011-11.158,15.466-17.643l-12.471-16.095l7.941-18.583
						l20.277-2.095C626.639,166.785,627.249,162.846,627.591,158.848z M552.246,187.387c-20.679,14.17-48.983,8.982-63.217-11.803
						c-14.144-20.752-8.889-49.013,11.846-63.163c20.668-14.253,48.98-8.98,63.162,11.726
						C578.304,144.903,572.968,173.213,552.246,187.387z"/>
				</g>
				<g>
					<path style="fill:#FFFFFF;" d="M581.438,112.295c-20.762-30.306-62.226-38.076-92.541-17.315
						c-30.288,20.79-38.032,62.185-17.212,92.54c20.759,30.297,62.197,38.028,92.484,17.267
						C594.485,184.026,602.208,142.585,581.438,112.295z M560.482,199.405c-27.319,18.726-64.696,11.753-83.42-15.575
						c-18.78-27.38-11.794-64.718,15.525-83.47c27.344-18.726,64.744-11.718,83.471,15.618
						C594.792,143.3,587.826,180.679,560.482,199.405z"/>
				</g>
				<g>
					<path style="fill:#782441;" d="M479.681,217.358l0.606,0.531l-3.945,19.803l-0.361,0.131c6.73,3.856,13.936,7.017,21.552,9.283
						l-0.143-0.349l11.648-16.502l20.104,1.862l8.467,18.339l-0.24,0.321c7.914-0.862,15.584-2.627,22.899-5.206l-0.313-0.182
						l-0.285-20.186l17.349-10.338l17.639,9.859l-0.021,0.342c5.804-5.257,11.011-11.158,15.466-17.643l-0.36,0.051l-12.111-16.146
						l7.941-18.583l20.051-2.373l0.227,0.278c0.789-3.866,1.399-7.805,1.741-11.803c0.358-3.884,0.449-7.754,0.337-11.567
						l-0.247,0.261l-5.469-1.692C578.262,195.324,522.708,212.365,479.681,217.358z"/>
				</g>
				<g>
					<path style="fill:#BB899A;" d="M564.169,204.787c10.4-7.122,18.139-16.678,22.983-27.383c-4.068,2.9-8.174,5.607-12.305,8.132
						c-3.878,5.256-8.673,9.971-14.366,13.869c-12.434,8.523-26.95,11.706-40.844,10.085c-4.747,1.346-9.441,2.52-14.057,3.537
						C524.646,219.346,546.339,217.009,564.169,204.787z"/>
				</g>
			</g>
			<g>
				<path style="fill:#A63F65;" d="M494.961,70.208l0.037-16.448c0,0,10.2-3.9,17.671-4.238
					C512.67,49.522,500.287,52.451,494.961,70.208z"/>
			</g>
		</g>
	</g>
	<g>
		<path style="opacity:0.14;" d="M485.051,735.018c1.511-0.72,2.881-1.599,3.121-2.525c0.262-1.011-0.569-2.027-1.591-2.593
			c-2.913-1.613-9.608-0.825-12.986-0.853c-6.077-0.051-12.156,0.004-18.228,0.194c-2.786,0.087-33.214,0.875-30.353,6.091
			c2.508,4.572,18.758,5.593,23.26,5.503c7.39-0.147,14.826-0.361,22.095-1.564c3.732-0.618,7.412-1.495,10.917-2.752
			C482.142,736.213,483.656,735.683,485.051,735.018z"/>
		<g>
			<circle style="fill:#435B6E;" cx="438.064" cy="715.544" r="24.547"/>
			<polygon style="fill:#2E414C;" points="428.606,730.16 420.676,714.661 430.134,700.045 447.521,700.927 455.451,716.426 
				445.993,731.043 			"/>
			<circle style="fill:#22323A;" cx="438.064" cy="715.544" r="8.991"/>
		</g>
	</g>
	<g>
		<g>
			<path style="fill:#2E414C;" d="M608.311,725.067l-55.681,3.698v-25.273l55.681,3.418l3.31,7.968
				c0.332,0.799,0.327,1.699-0.014,2.494L608.311,725.067z"/>
			<path style="fill:#435B6E;" d="M600.039,725.869c-1.519-7.406-3.207-14.936-5.073-22.616c-0.797-3.279-6.081-2.382-5.228,1.009
				c1.993,7.923,3.794,15.686,5.414,23.317C595.822,730.734,600.666,728.928,600.039,725.869z"/>
			<path style="fill:#435B6E;" d="M609.219,725.211c-1.339-6.956-2.823-14.019-4.463-21.212c-0.699-3.068-5.326-2.199-4.58,0.967
				c1.744,7.405,3.322,14.674,4.744,21.827C605.507,729.754,609.772,728.087,609.219,725.211z"/>
			<path style="fill:#435B6E;" d="M579.509,727.392c-2.145-8.314-4.54-16.81-7.204-25.526c-1.142-3.738-8.792-2.871-7.548,1.026
				c2.893,9.064,5.49,17.89,7.814,26.519C573.529,732.966,580.393,730.815,579.509,727.392z"/>
			<path style="fill:#435B6E;" d="M589.582,726.618c-1.739-7.918-3.674-15.982-5.817-24.219c-0.916-3.522-7.009-2.597-6.023,1.053
				c2.3,8.517,4.374,16.848,6.237,25.024C584.748,731.855,590.299,729.886,589.582,726.618z"/>
		</g>
		<polygon style="opacity:0.15;fill:#FFFFFF;" points="608.836,708.175 560.568,709.697 561.852,704.476 608.256,707.16 		"/>
		<g>
			<path style="fill:#5C7789;" d="M538.072,691.273c-7.378,4.132-11.739,14.497-11.739,24.271c0,9.774,4.361,20.139,11.739,24.271
				c11.186,6.264,25.614-2.945,25.614-24.271C563.685,694.217,549.258,685.008,538.072,691.273z"/>
			<g>
				<path style="fill:#435B6E;" d="M557.417,715.544c0,21.326-12.456,30.535-22.113,24.271c-6.37-4.132-10.135-14.497-10.135-24.271
					s3.765-20.139,10.135-24.271C544.961,685.008,557.417,694.217,557.417,715.544z"/>
				<polygon style="fill:#2E414C;" points="530.619,728.186 527.51,714.853 531.295,701.861 541.554,698.678 548.664,716.728 
					540.406,732.958 				"/>
				<path style="fill:#22323A;" d="M541.196,715.544c0,5.683-2.852,9.612-5.892,8.889c-2.615-0.621-4.481-4.568-4.481-8.889
					c0-4.321,1.866-8.268,4.481-8.889C538.344,705.932,541.196,709.861,541.196,715.544z"/>
			</g>
		</g>
	</g>
	<g>
		<g>
			<path style="fill:#2E414C;" d="M770.646,474.291l-30.507-52.237l19.165-10.992l30.507,52.237l-4.65,9.282
				c-0.777,1.55-2.406,2.486-4.136,2.375L770.646,474.291z"/>
			<path style="fill:#435B6E;" d="M750.731,441.646c6.317-5.965,12.516-12.067,18.598-18.307c2.553-2.619-1.92-7.424-4.477-4.8
				c-6.082,6.24-12.281,12.342-18.598,18.306C743.603,439.349,748.083,444.145,750.731,441.646z"/>
			<path style="fill:#435B6E;" d="M757.299,453.098c6.317-5.965,12.516-12.067,18.598-18.307c2.553-2.619-1.92-7.424-4.477-4.8
				c-6.082,6.24-12.281,12.342-18.598,18.306C750.171,450.801,754.652,455.598,757.299,453.098z"/>
			<path style="fill:#435B6E;" d="M763.868,464.551c6.317-5.965,12.516-12.067,18.598-18.307c2.553-2.619-1.92-7.424-4.477-4.8
				c-6.082,6.24-12.281,12.342-18.598,18.306C756.74,462.253,761.221,467.05,763.868,464.551z"/>
			<path style="fill:#435B6E;" d="M770.437,476.003c6.317-5.965,12.516-12.067,18.598-18.307c2.553-2.619-1.92-7.424-4.477-4.8
				c-6.082,6.24-12.281,12.342-18.598,18.306C763.308,473.706,767.789,478.502,770.437,476.003z"/>
		</g>
		<polygon style="opacity:0.08;fill:#FFFFFF;" points="786.216,470.54 784.729,473.626 752.975,422.55 760.88,416.805 		"/>
		<g>
			<path style="fill:#5C7789;" d="M764.305,389.207c-7.472-3.418-19.085-0.892-27.961,4.716
				c-8.877,5.608-16.092,14.976-16.125,23.134c-0.049,12.37,15.589,18.405,34.957,6.169
				C774.545,410.99,775.635,394.388,764.305,389.207z"/>
			<g>
				<path style="fill:#435B6E;" d="M752.016,418.309c-19.369,12.236-34.012,7.747-33.192-3.423
					c0.541-7.367,8.057-16.268,16.933-21.876c8.877-5.608,20.189-8.601,27.153-5.974
					C773.469,391.018,771.385,406.073,752.016,418.309z"/>
				<polygon style="fill:#2E414C;" points="728.045,406.245 738.586,396.156 752.294,391.672 760.357,397.893 747.55,413.827 
					728.646,416.66 				"/>
				<path style="fill:#22323A;" d="M744.86,407.289c-5.161,3.26-10.167,3.277-11.044,0.478c-0.754-2.408,1.889-6.136,5.814-8.616
					c3.925-2.479,8.45-3.28,10.333-1.585C752.151,399.537,750.021,404.029,744.86,407.289z"/>
			</g>
		</g>
	</g>
	<g>
		<g>
			<polygon style="fill:#EBCEB1;" points="764.844,439.684 751.667,434.021 753.923,428.346 763.834,430.249 763.641,427.087 
				774.307,433.291 772.767,439.496 			"/>
		</g>
		<g>
			<path style="fill:#B3C4BD;" d="M895.426,400.087c-1.003-0.547-2.156-0.973-3.459-1.251c-5.404-1.155-11.132,0.312-16.01,2.936
				c-7.723,4.155-14.19,10.766-21.392,15.764c-8.238,5.718-16.476,11.435-24.714,17.153l-58.431-4.697l-2.418,12.46
				c0,0,69.435,19.13,69.435,19.129c10.566-8.121,20.86-16.096,31.858-23.498c9.859-6.635,21.842-11.756,28.099-22.345
				C901.927,409.759,900.938,403.093,895.426,400.087z"/>
		</g>
	</g>
	<g>
		<path style="fill:#748799;" d="M741.522,249.861c-9.068-2.931-14.023-12.718-11.068-21.859c1.17-3.62,3.415-6.581,6.252-8.673
			l-22.578,5.477c-10.494,2.546-21.311,3.239-32.09,2.592c-6.508-0.391-13.203,0.863-19.461,3.974l-139.023,69.113
			c-7.112,3.536-12.457,8.883-15.785,15.137c-5.883,11.055-13.616,21.021-23.306,28.955l-1.986,1.625l14.105,28.505l8.296-1.968
			c10.91-2.589,22.199-2.771,33.283-1.072c7.59,1.163,15.601,0.081,23-3.597l135.809-67.516c6.258-3.111,11.299-7.692,14.916-13.116
			c5.991-8.984,13.073-17.19,21.438-24.019l15.805-12.904C746.647,250.858,744.06,250.682,741.522,249.861z"/>
		<g>
			<g>
				<g>
					<g style="opacity:0.23;">
						<g style="opacity:0.34;">
							<path d="M726.087,222.084c-3.117,6.808-3.328,15.121,0.537,22.199c3.268,5.985,9.093,10.136,15.163,11.895l-1.839,1.557
								c-6.567-1.543-12.475-5.766-15.962-12.153c-4.052-7.421-3.88-16.012-0.296-23.01L726.087,222.084z"/>
						</g>
					</g>
					<g style="opacity:0.34;">
						<g style="opacity:0.34;">
							<path d="M484.317,344.681c5.282,2.059,9.957,5.874,12.788,11.218c3.193,6.026,3.175,12.539,1.298,18.574l2.465-0.789
								c2.332-6.33,2.183-12.84-1.224-19.27c-2.987-5.638-7.856-9.636-13.423-11.631L484.317,344.681z"/>
						</g>
					</g>
				</g>
			</g>
		</g>
		<path style="fill:#748799;" d="M769.145,221.104c-6.507-11.917-21.442-16.302-33.359-9.796
			c-11.917,6.507-16.302,21.442-9.795,33.359c6.507,11.917,21.442,16.302,33.359,9.796
			C771.266,247.956,775.652,233.02,769.145,221.104z M742.483,246.46c-7.427-2.401-11.501-10.368-9.1-17.795
			c2.401-7.427,10.368-11.501,17.795-9.1c7.427,2.401,11.501,10.368,9.1,17.795C757.877,244.786,749.91,248.861,742.483,246.46z"/>
		<g>
			<path style="fill:#748799;" d="M498.42,355.069c-6.044-12.158-20.8-17.114-32.958-11.07c-12.158,6.044-17.114,20.8-11.07,32.958
				c6.044,12.158,20.8,17.114,32.958,11.07C499.508,381.983,504.464,367.227,498.42,355.069z M481.793,378.042
				c-6.743,3.263-14.855,0.441-18.117-6.302c-3.263-6.743-0.441-14.855,6.302-18.117c6.743-3.263,14.855-0.441,18.117,6.302
				C491.358,366.668,488.536,374.779,481.793,378.042z"/>
		</g>
	</g>
	<g>
		<g>
			
				<ellipse transform="matrix(0.7071 -0.7071 0.7071 0.7071 54.7151 596.6418)" style="fill:#435B6E;" cx="747.568" cy="232.274" rx="25.031" ry="25.031"/>
			<polygon style="fill:#2E414C;" points="737.924,247.179 729.838,231.374 739.482,216.469 757.212,217.369 765.298,233.174 
				755.654,248.078 			"/>
			<circle style="fill:#22323A;" cx="747.568" cy="232.274" r="9.168"/>
		</g>
	</g>
	<g>
		<g>
			<g>
				<g>
					<path style="fill:#EBCEB1;" d="M221.542,284.567c-10.43,3.48-21.558-4.133-31.62,0.896c-6.543,3.27-10.992,11.505-12.063,19.82
						c-0.499,3.876-0.337,7.927,1.061,11.317c0.907,2.2,2.299,4.043,3.861,5.6c2.088,2.082,4.517,3.642,7.122,4.659
						c-1.008,2.786-2.226,5.481-3.635,8.04c5.135,0.966,10.271,1.932,15.407,2.898c0.665-3.499,1.33-6.997,1.995-10.496
						c1.451-0.452,2.877-1.05,4.25-1.828c8.305-4.708,14.354-15.216,14.973-26.011C223.182,294.405,222.376,289.446,221.542,284.567
						z"/>
				</g>
			</g>
		</g>
		<path style="fill:#333333;" d="M168.743,306.851c-0.441-0.751-0.864-1.514-1.246-2.3c-4.623-9.542-7.104-20.745-0.265-29.942
			c6.965-9.366,21.231-13.463,32.134-10.686c6.008,1.53,12.358,3.587,18.249,1.653c1.762-0.578,3.47-1.563,4.469-3.125
			c0.927-1.448,1.165-3.259,2.122-4.688c2.238-3.342,8.345-2.552,9.659,1.25c0.385,1.115,0.41,2.358,0.992,3.384
			c1.288,2.274,4.43,2.373,7.021,2.713c0.831,0.109,1.727,0.313,2.255,0.963c0.964,1.186,0.046,3.056-1.28,3.815
			c-1.83,1.048-5.023,0.754-6.181,2.807c-0.837,1.485,0.444,4.332,0.23,6.046c-0.752,6-5.931,11.451-11.401,13.494
			c-5.241,1.957-9.934-0.168-15.169-1.508c-1.481-0.379-3.062-1.306-4.514-1.507c-1.831-0.253-3.635,0.643-5.384,1.032
			c-2.184,0.486-4.454,0.212-6.683,0.028c-2.23-0.183-4.55-0.259-6.622,0.586c-2.071,0.845-3.827,2.849-3.702,5.082
			c0.152,2.704,2.876,4.809,2.824,7.517c-0.044,2.348-2.132,4.101-3.025,6.273c-0.691,1.682-0.711,3.717-1.972,5.027
			c-0.56,0.582-1.317,0.957-1.826,1.584c-0.665,0.82-0.869,2.024-1.756,2.597c-0.982,0.634-2.362,0.133-3.118-0.758
			c-0.757-0.891-1.066-2.064-1.44-3.172C172.109,312.038,170.309,309.514,168.743,306.851z"/>
	</g>
	<path style="fill:#736357;" d="M150.094,378.685c-2.909,12.954-4.404,26.179-5.47,39.402c-0.984,12.197-3.7,23.806-3.7,36.056
		c0,28.134-7.482,54.866-11.052,82.455c-2.002,15.469,14.712,9.993,25.928,9.71c14.35-0.363,28.699-0.725,43.049-1.088
		c11.699-0.296,23.531-0.61,34.828-3.664c10.081-2.726,28.048-10.285,27.944-21.961c-0.061-6.849-4.204-15.443-5.536-22.318
		c-1.457-7.522-2.552-15.109-3.453-22.716c-3.628-30.62-3.847-61.631-9.546-92.001c-3.494-18.619-10.702-35.562-28.031-45.105
		c-11.918-6.563-27.112-8.019-39.125-1.632c-14.139,7.517-21.177,23.771-25.004,39.321
		C150.637,376.322,150.359,377.503,150.094,378.685z"/>
	<g>
		<g>
			<path style="fill:#2E414C;" d="M405.965,381.483l10.255,24.97c1.745,4.248,6.602,6.277,10.85,4.532l0,0
				c4.248-1.745,6.277-6.602,4.532-10.85l-10.255-24.97c-1.745-4.248-6.602-6.277-10.85-4.532l0,0
				C406.25,372.378,404.22,377.236,405.965,381.483z"/>
			<path style="fill:#435B6E;" d="M412.049,398.949c7.008-0.57,14.021-1.07,21.04-1.5c1.987-0.122,2.381,2.966,0.375,3.089
				c-7.018,0.43-14.031,0.93-21.04,1.5C410.435,402.2,410.045,399.112,412.049,398.949z"/>
			<path style="fill:#435B6E;" d="M408.334,389.904c7.008-0.57,14.021-1.07,21.039-1.5c1.987-0.122,2.381,2.966,0.375,3.089
				c-7.018,0.43-14.031,0.93-21.04,1.5C406.72,393.155,406.33,390.067,408.334,389.904z"/>
			<path style="fill:#435B6E;" d="M405.983,381.621c7.008-0.57,14.021-1.07,21.039-1.5c1.987-0.122,2.381,2.966,0.375,3.089
				c-7.018,0.43-14.031,0.93-21.04,1.5C404.369,384.872,403.979,381.784,405.983,381.621z"/>
		</g>
		<path style="fill:#AFBDC6;" d="M407.209,373.579c3.884-0.8,7.779-1.553,11.691-2.237c2.884-0.504,7.175-2.096,10.142-0.737
			c2.835,1.298,4.503,5.379,5.935,7.959c1.983,3.573,3.736,7.268,5.239,11.051c1.349,3.397,2.478,6.865,3.443,10.372
			c0.755,2.746,1.384,5.487-0.814,7.538c-4.769,4.452-13.757,4.466-19.993,4.777c-3.713,0.185-4.664-5.714-0.923-5.9
			c5.19-0.259,10.309-0.579,15.111-2.468c1.802-0.709,1.568-0.751,1.044-2.732c-0.394-1.489-0.852-2.966-1.338-4.431
			c-0.852-2.57-1.817-5.109-2.894-7.603c-1.077-2.494-2.259-4.948-3.547-7.347c-0.697-1.297-1.436-2.843-2.304-4.024
			c-1.211-1.647-1.224-1.447-2.955-1.431c-2.553,0.023-5.346,0.888-7.829,1.341c-3.038,0.553-6.065,1.149-9.085,1.771
			C404.513,380.225,403.609,374.321,407.209,373.579z"/>
		<path style="fill:#2E414C;" d="M393.745,378.112c2.724-0.961,5.523-1.512,8.239-2.503c0.42-0.172,0.839-0.338,1.255-0.493
			c3.594-1.346,6.178,4.011,2.572,5.552c-0.932,0.398-1.87,0.772-2.818,1.119c-2.193,1.013-4.075,2.464-3.778,5.222
			c0.39,3.621,2.105,7.431,3.657,10.705c1.644,3.469,3.664,6.732,6.059,9.74c1.416,1.778,1.303,2.192,3.469,1.783
			c1.929-0.365,3.853-0.757,5.78-1.135c1.962-0.385,3.192,1.013,3.413,2.565c0.76,1.153,0.82,2.698-0.579,3.771
			c-4.145,3.179-9.855,6.411-14.945,2.843c-2.613-1.832-3.813-5.321-5.2-8.045c-1.665-3.269-3.33-6.537-4.995-9.806
			c-2.352-4.617-7.459-11.192-6.411-16.673C389.916,380.38,391.539,378.889,393.745,378.112z"/>
		<path style="fill:#AFBDC6;" d="M450.504,392.92c8.019-1.359,15.777-3.317,23.622-5.452c5.249-1.429,10.422-2.693,15.484-4.681
			c4.986-1.959,9.917-4.063,14.966-5.856c3.775-1.34,15.511-6.717,18.294-1.88c1.683,2.925-1.148,6.794-2.805,9.052
			c-2.454,3.346-5.034,6.753-7.691,9.904c-7.963,9.445-17.143,17.86-27.255,24.958c-7.998,5.615-16.696,10.454-26.081,13.09
			c-1.081,0.303-2.171,0.578-3.27,0.821c-0.46,0.102-0.952,0.196-1.393,0.029c-0.648-0.246-0.967-0.958-1.218-1.604
			c-4.064-10.458-7.486-21.165-10.242-32.04c-0.352-1.387-0.682-2.905-0.087-4.206C443.796,392.94,448.545,393.252,450.504,392.92z"
			/>
		<g>
			<path style="fill:#435B6E;" d="M395.071,378.81c-1.587,0.3-2.424,1.99-1.766,3.563l12.079,28.844
				c0.538,1.285,1.903,2.042,3.193,1.771l12.843-2.704l11.355,27.422l0,0c-0.334-0.399-4.316-0.178-5.731-0.642
				c-2.524-0.828-4.689-1.005-7.357-1.102c-17.003-0.615-34.983,0.006-48.721,11.39c-22.095,18.31-43.751,37.208-65.417,56.023
				c-21.979,19.086-43.757,38.41-65.092,58.214c-0.427,0.396-0.854,0.793-1.28,1.189c-10.55,9.81-20.992,19.736-31.465,29.627
				c-5.446,5.143-10.899,10.279-16.38,15.384c-5.892,5.489-9.405,11.058-18.351,8.878c-7.985-1.946-16.158-7.004-21.7-12.999
				c-4.55-4.922-7.728-10.82-9.532-17.264c-1.948-6.958-5.225-15.561,1.732-20.634c3.052-2.226,6.068-4.438,8.964-6.87
				c44.768-34.763,90.373-69.448,134.377-105.511c3.119-2.556,6.24-5.111,9.366-7.658c11.56-9.417,30.69-26.201,41.941-35.999
				c21.92-19.089,23.773-32.276,35.68-54.521c4.807-8.981,9.251-18.154,13.45-27.435l20.163,48.694L395.071,378.81z"/>
			<path style="fill:#C1D0DB;" d="M426.183,301.289c17.221-4.4,61.451,14.244,73.032,18.236c11.581,3.993,4.801,13.342,4.801,13.342
				c-2.002,0.433-3.998,0.889-5.994,1.351c-5.398,1.248-10.783,2.56-16.145,3.954c-3.92,1.019-7.831,2.071-11.737,3.142
				c-1.953,0.535-3.91,1.06-5.856,1.618c-1.557,0.447-2.952,1.349-4.485,1.932c-1.706,0.649-3.414,1.299-5.058,2.092
				c-3.136,1.512-6.511,3.568-8.971,6.063c-0.864,0.877-2.148,3.095-1.559,4.456c0.07,0.161,32.318,74.652,32.318,74.652
				c0.383,0.885-0.215,1.884-1.175,1.966l-42.578,3.612c0.006-0.003,1.872-1.644,1.048-6.985c-0.563-3.654-1.531-7.244-2.612-10.775
				c-1.129-3.689-2.449-7.312-3.798-10.925l10.687-2.25c3.285-0.692,4.932-4.272,3.45-7.504l-11.378-24.822
				c-0.557-1.216-1.86-1.926-3.103-1.69l-12.477,2.361c-7.37-18.088-15.64-35.808-24.773-53.072c-0.843,1.917-1.7,3.827-2.563,5.735
				l-0.907-2.191C392.594,316.688,408.962,305.689,426.183,301.289z"/>
			<path style="fill:#C1D0DB;" d="M427.414,409.021c1.349,3.613,2.669,7.236,3.798,10.925c1.081,3.531,2.049,7.12,2.612,10.775
				c0.823,5.341-1.042,6.982-1.048,6.985l-11.355-27.422L427.414,409.021z"/>
			<path style="fill:#C1D0DB;" d="M414.593,375.116l-7.173,1.357l-20.163-48.694c0.863-1.908,1.72-3.819,2.563-5.735
				C398.954,339.308,407.224,357.028,414.593,375.116z"/>
		</g>
		<g>
			<path style="fill:#E29530;" d="M309.447,502.918c-0.397,0.345-0.793,0.689-1.19,1.034
				c-23.412,20.331-46.609,40.913-69.335,62.009c-0.455,0.422-0.909,0.844-1.363,1.267c-11.237,10.45-22.36,21.022-33.516,31.559
				c-5.801,5.478-11.609,10.949-17.448,16.387c-6.276,5.846-10.018,11.779-19.547,9.456c-8.505-2.073-17.211-7.461-23.115-13.846
				c-4.847-5.243-8.232-11.525-10.153-18.389c-2.075-7.411-5.566-16.575,1.844-21.979c3.251-2.371,6.463-4.727,9.548-7.318
				c42.5-33.002,87.529-67.504,129.608-101.473L309.447,502.918z"/>
			<path style="fill:#FFFFFF;" d="M158.147,579.965c-5.273,4.427-5.959,12.29-1.532,17.563c4.427,5.273,12.29,5.959,17.563,1.532
				s5.959-12.29,1.532-17.563C171.283,576.224,163.42,575.538,158.147,579.965z"/>
		</g>
		<path style="opacity:0.08;fill:#FFFFFF;" d="M305.01,483.556l-10.558-12.576c-1.978-2.356-1.675-5.866,0.681-7.844
			c15.07-12.648,65.054-54.805,67.965-59.964c2.573-4.562,5.337-9.022,8.066-13.492c1.561-2.557,6.482-14.095,9.118-15.028
			c5.922-2.095,9.835,14.483,11.43,18.315c3.164,7.602,6.227,15.246,9.25,22.907c0.943,2.39-0.635,5.017-3.188,5.312
			c-5.644,0.654-14.788,2.437-21.353,7.293c-8.468,6.263-49.898,43.458-63.422,55.637
			C310.656,486.226,307.036,485.97,305.01,483.556z"/>
		<g>
			<path style="fill:#435B6E;" d="M157.966,579.599c5.601-4.702,13.983-3.971,18.685,1.63c4.702,5.601,3.971,13.983-1.63,18.685
				c-5.601,4.702-13.983,3.971-18.685-1.629C151.634,592.683,152.365,584.301,157.966,579.599z M158.867,580.672
				c-5.009,4.206-5.663,11.703-1.458,16.712s11.702,5.663,16.712,1.457c5.009-4.206,5.663-11.702,1.458-16.712
				C171.373,577.12,163.876,576.466,158.867,580.672z"/>
		</g>
	</g>
	<g id="XMLID_1_">
		<g id="XMLID_3_">
			<g>
				<polygon style="fill:#EBCEB1;" points="268.495,480.87 273.624,488.402 281.552,489.873 282.112,491.689 279.888,492.433 
					286.14,495.513 288.477,500.619 284.728,507.002 277.543,509.796 271.483,505.361 267.864,497.261 260.397,487.245 				"/>
			</g>
		</g>
		<g id="XMLID_2_">
			<g>
				<polygon style="fill:#736357;" points="274.482,479.906 220.991,406.919 224.878,364.546 180.915,362.048 180.782,417.049 
					186.825,431.533 260.336,495.741 				"/>
			</g>
		</g>
	</g>
	<g>
		<g>
			
				<ellipse transform="matrix(0.7071 -0.7071 0.7071 0.7071 -121.3235 449.9504)" style="fill:#435B6E;" cx="482.476" cy="371.426" rx="25.031" ry="25.031"/>
			<polygon style="fill:#2E414C;" points="472.832,386.33 464.746,370.526 474.391,355.621 492.121,356.521 500.206,372.325 
				490.562,387.23 			"/>
			<circle style="fill:#22323A;" cx="482.476" cy="371.426" r="9.168"/>
		</g>
	</g>
	
		<ellipse transform="matrix(0.1602 -0.9871 0.9871 0.1602 148.9485 827.8757)" style="opacity:0.27;fill:#414C56;" cx="561" cy="326.404" rx="17.658" ry="17.658"/>
	<circle style="opacity:0.27;fill:#414C56;" cx="615.802" cy="300.622" r="17.658"/>
	<circle style="opacity:0.27;fill:#414C56;" cx="669.482" cy="273.313" r="17.658"/>
	<g>
		<g>
			<g>
				<path style="opacity:0.1091;fill:#B3C4BD;" d="M873.094,86.971c-0.111,0.836-0.221,1.671-0.332,2.507
					c-0.029,0.221,2.283,0.078,2.264,0.024c-0.11-0.31-0.221-0.62-0.331-0.931C874.534,88.121,873.037,87.402,873.094,86.971z"/>
				<path style="opacity:0.1091;fill:#B3C4BD;" d="M873.597,84.798c0,0.572,0,1.144,0,1.716c0,0.165,2.264,0.168,2.264,0.005
					c0-0.574,0-1.148,0-1.722C875.861,84.796,873.597,84.796,873.597,84.798z"/>
				<path style="opacity:0.1091;fill:#B3C4BD;" d="M875.926,86.118c-0.469,0.942-0.938,1.885-1.407,2.827
					c-0.029,0.059,2.316,0.151,2.264-0.02C876.497,87.99,876.212,87.054,875.926,86.118z"/>
				<path style="opacity:0.1091;fill:#B3C4BD;" d="M876.963,90.52c-0.126,0.303-0.252,0.606-0.378,0.909
					c-0.011,0.026,2.298,0.171,2.263-0.068c-0.126-0.843-0.252-1.687-0.377-2.53C878.533,89.252,877.144,90.084,876.963,90.52z"/>
				<path style="opacity:0.1091;fill:#B3C4BD;" d="M877.937,86.171c-0.402,0.962-0.805,1.923-1.207,2.885
					c-0.035,0.084,2.317,0.071,2.263-0.073C878.641,88.045,878.289,87.108,877.937,86.171z"/>
				<path style="opacity:0.1091;fill:#B3C4BD;" d="M871.4,84.74c-0.081,0.332-0.161,0.665-0.242,0.997
					c-0.024,0.097,2.279,0.226,2.263,0.065c-0.08-0.82-0.161-1.641-0.241-2.461C873.222,83.761,871.509,84.291,871.4,84.74z"/>
				<path style="opacity:0.1091;fill:#B3C4BD;" d="M872.199,85.931c-0.377,0.939-0.754,1.879-1.132,2.818
					c-0.051,0.128,2.302,0.166,2.263,0.066C872.953,87.854,872.576,86.893,872.199,85.931z"/>
				<path style="opacity:0.1091;fill:#B3C4BD;" d="M873.362,90.329c-0.003,0.617-0.006,1.234-0.008,1.851
					c-0.001,0.175,2.265,0.179,2.264,0.01c-0.003-0.529-0.005-1.059-0.008-1.588C875.609,90.507,873.361,90.416,873.362,90.329z"/>
				<path style="opacity:0.1091;fill:#B3C4BD;" d="M876.324,83.547c-0.081,0.816-0.161,1.633-0.242,2.449
					c-0.017,0.174,2.289,0.046,2.263-0.061c-0.08-0.33-0.161-0.66-0.241-0.989C877.995,84.497,876.283,83.967,876.324,83.547z"/>
				<path style="opacity:0.1091;fill:#B3C4BD;" d="M871.904,88.586c-0.093,0.812-0.185,1.623-0.278,2.435
					c-0.025,0.222,2.283,0.123,2.263,0.053c-0.092-0.334-0.185-0.668-0.277-1.003C873.487,89.616,871.856,89.015,871.904,88.586z"/>
				<path style="opacity:0.1091;fill:#B3C4BD;" d="M874.783,82.715c-0.013,0.676-0.026,1.351-0.039,2.027
					c-0.003,0.148,2.268,0.134,2.264-0.024c-0.013-0.471-0.026-0.941-0.039-1.412C876.962,83.1,874.779,82.907,874.783,82.715z"/>
				<path style="opacity:0.1091;fill:#B3C4BD;" d="M871.712,84.47c-0.537,0.903-1.075,1.805-1.612,2.708
					c-0.019,0.033,2.302,0.261,2.262,0.09C872.145,86.336,871.928,85.403,871.712,84.47z"/>
			</g>
		</g>
	</g>
</g>
</svg>
