<?xml version="1.0" standalone="no"?>
<!DOCTYPE svg PUBLIC "-//W3C//DTD SVG 20010904//EN"
 "http://www.w3.org/TR/2001/REC-SVG-20010904/DTD/svg10.dtd">
<svg version="1.0" xmlns="http://www.w3.org/2000/svg"
 width="1409.000000pt" height="1310.000000pt" viewBox="0 0 1409.000000 1310.000000"
 preserveAspectRatio="xMidYMid meet">

<g transform="translate(0.000000,1310.000000) scale(0.100000,-0.100000)"
fill="#000000" stroke="none">
<path d="M3895 12504 c-16 -2 -73 -9 -125 -15 -686 -78 -1306 -376 -1796 -864
-429 -427 -716 -961 -833 -1550 -60 -303 -56 -29 -56 -3515 0 -3411 -3 -3223
52 -3510 73 -390 235 -785 456 -1115 440 -659 1140 -1129 1912 -1284 301 -60
26 -56 3535 -56 3037 0 3201 1 3315 18 394 60 668 144 980 302 360 182 641
401 937 730 140 156 302 403 418 640 145 293 229 564 283 909 l22 141 0 3215
0 3215 -22 144 c-40 255 -107 498 -198 722 -378 925 -1204 1613 -2177 1813
-315 65 -23 60 -3508 62 -1741 0 -3178 0 -3195 -2z m2380 -2589 c197 -29 237
-36 370 -73 117 -32 203 -62 272 -93 23 -10 45 -19 48 -19 24 0 278 -140 316
-173 9 -8 21 -16 26 -18 13 -5 63 -44 111 -86 20 -18 43 -33 50 -33 6 0 12 -3
12 -7 0 -5 13 -21 30 -38 85 -86 210 -231 210 -244 0 -5 4 -11 8 -13 11 -4 72
-94 72 -106 0 -6 3 -12 8 -14 20 -9 129 -258 165 -379 34 -116 35 -118 62
-269 25 -140 26 -154 16 -744 0 -15 -4 -33 -9 -40 -5 -6 -12 -33 -15 -61 -7
-54 -8 -62 -33 -175 -18 -79 -49 -205 -65 -255 -24 -78 -38 -122 -50 -150 -7
-16 -13 -34 -13 -40 -4 -41 -174 -403 -231 -491 -21 -33 -50 -77 -64 -99 -39
-60 -132 -185 -166 -224 -60 -67 -181 -188 -230 -229 -110 -94 -324 -227 -430
-268 -115 -45 -165 -62 -165 -57 0 3 -6 1 -12 -4 -14 -11 -116 -36 -213 -53
-33 -5 -69 -12 -80 -14 -11 -2 -40 -7 -65 -11 -106 -17 -222 -85 -287 -167
-32 -39 -67 -107 -92 -178 -15 -42 -112 -341 -116 -355 -1 -5 -7 -23 -13 -38
-7 -16 -12 -34 -12 -40 0 -7 -10 -41 -21 -77 -11 -36 -22 -72 -24 -80 -2 -8
-22 -86 -44 -172 -23 -86 -41 -167 -41 -179 0 -12 -4 -36 -9 -53 -21 -68 -43
-186 -51 -281 -10 -121 -15 -147 -39 -194 -64 -123 -201 -169 -363 -121 -99
30 -251 71 -278 76 -14 2 -36 9 -50 14 -14 5 -38 12 -53 14 -16 3 -57 19 -90
36 -64 32 -107 81 -121 133 -3 15 -10 27 -14 27 -4 0 -7 30 -6 67 1 60 9 86
64 213 62 143 145 382 170 490 7 30 16 62 21 71 4 9 11 31 14 50 3 19 10 38
16 44 5 5 9 19 9 31 0 12 13 73 28 135 29 115 49 198 56 234 3 11 16 73 30
137 53 242 22 399 -103 522 -41 40 -165 146 -210 179 -9 7 -57 57 -106 113
-94 104 -171 211 -222 304 -16 30 -35 64 -41 75 -57 104 -136 345 -163 500 -5
28 -14 75 -19 106 -6 30 -10 180 -10 332 0 277 6 350 44 532 8 39 22 106 31
150 18 87 116 402 148 475 10 25 26 61 34 80 18 43 132 272 160 320 27 47 84
132 100 148 7 7 13 17 13 22 0 5 6 15 13 22 7 7 33 39 56 72 67 91 337 355
364 356 4 0 16 8 26 18 34 30 50 42 57 42 4 0 15 6 23 14 9 7 36 24 61 37 25
13 51 30 58 37 7 6 22 12 33 12 10 0 19 5 19 10 0 6 5 10 10 10 6 0 32 9 58
21 71 32 84 37 127 50 22 7 44 17 49 21 6 4 23 8 38 8 16 0 36 4 46 9 34 18
166 42 260 47 53 3 99 8 102 11 6 6 266 -3 325 -12z m1169 -4687 c23 -6 50
-14 61 -19 11 -4 44 -18 73 -29 68 -26 103 -51 178 -127 70 -70 128 -167 150
-251 21 -75 23 -261 4 -327 -32 -114 -113 -238 -203 -310 -115 -93 -224 -130
-382 -130 -65 0 -131 6 -160 14 -74 21 -194 86 -246 134 -54 49 -132 161 -150
215 -6 20 -15 42 -19 47 -5 6 -13 46 -20 90 -20 135 2 273 63 384 17 31 33 58
36 61 4 3 21 24 40 48 74 94 207 170 366 206 34 7 166 4 209 -6z m2426 -62
c65 -19 130 -48 130 -58 0 -5 4 -7 8 -4 7 4 31 -18 90 -85 25 -28 60 -116 66
-164 4 -32 1 -34 -56 -38 -10 -1 -18 -4 -18 -8 0 -4 -10 -9 -22 -12 -13 -3
-33 -8 -44 -12 -19 -6 -25 1 -45 54 -13 34 -27 61 -31 61 -5 0 -8 7 -8 15 0 8
-3 15 -8 15 -4 0 -18 10 -32 23 -39 35 -89 47 -190 47 -84 0 -100 -3 -156 -31
-70 -34 -108 -76 -142 -155 -28 -66 -44 -172 -36 -237 7 -62 45 -187 56 -187
4 0 8 -6 8 -12 0 -17 63 -78 80 -78 8 0 21 -7 31 -16 25 -23 100 -37 194 -37
81 1 106 3 115 14 3 3 25 13 50 22 78 30 84 39 86 117 2 41 -2 72 -8 76 -6 4
-67 6 -136 6 -78 -1 -131 3 -139 10 -18 14 -18 167 0 169 6 1 112 2 235 3 194
2 224 1 231 -13 14 -25 11 -374 -2 -390 -7 -8 -10 -17 -8 -20 2 -3 -6 -11 -18
-17 -11 -6 -18 -13 -16 -16 7 -7 -158 -88 -178 -88 -9 0 -17 -4 -19 -10 -1 -5
-20 -10 -41 -12 -21 -1 -41 -6 -43 -10 -8 -12 -262 -10 -269 2 -3 6 -17 10
-30 10 -27 0 -158 64 -176 86 -6 8 -16 14 -22 14 -5 0 -21 12 -34 28 -25 27
-93 127 -93 136 0 3 -5 17 -12 33 -27 68 -40 167 -34 273 7 116 15 148 74 268
27 55 140 172 167 172 7 0 15 4 17 10 2 5 12 11 23 13 11 2 29 8 41 15 12 6
38 12 58 14 20 1 36 5 36 9 0 13 222 8 270 -5z m-1510 -6 c6 -4 19 -19 28 -33
92 -141 257 -383 264 -385 4 -2 8 -9 8 -16 0 -7 9 -21 20 -31 11 -10 20 -22
20 -27 0 -5 14 -29 30 -53 17 -24 30 -48 30 -54 0 -6 5 -11 10 -11 6 0 10 -5
10 -10 0 -6 5 -16 10 -23 6 -7 20 -23 31 -37 13 -16 22 -21 27 -13 4 6 7 162
6 347 -1 263 1 338 11 346 8 6 46 10 92 8 l78 -3 1 -528 1 -527 -21 -6 c-12
-3 -52 -4 -90 -2 l-69 3 -33 50 c-19 28 -40 57 -47 65 -7 8 -42 58 -77 110
-35 52 -68 100 -73 105 -4 6 -16 22 -25 36 -83 129 -216 318 -228 323 -11 4
-14 -10 -14 -82 0 -48 -1 -204 -3 -347 l-2 -260 -82 -3 c-79 -3 -83 -2 -87 20
-8 34 -15 862 -9 963 l6 86 83 -2 c45 -1 87 -5 94 -9z"/>
<path d="M5872 9688 c-9 -4 -35 -7 -58 -7 -23 -1 -54 -5 -70 -10 -16 -5 -56
-14 -89 -21 -78 -16 -137 -35 -185 -60 -22 -11 -40 -18 -40 -16 0 6 -110 -52
-124 -65 -6 -5 -18 -9 -28 -9 -10 0 -18 -4 -18 -8 0 -5 -12 -15 -27 -23 -15
-8 -35 -19 -43 -26 -8 -7 -44 -33 -80 -60 -71 -52 -237 -215 -285 -278 -16
-22 -38 -49 -48 -60 -22 -24 -99 -141 -123 -187 -9 -18 -20 -35 -24 -38 -9 -7
-98 -193 -165 -345 -7 -16 -25 -68 -40 -115 -15 -47 -31 -94 -36 -105 -5 -11
-11 -31 -13 -45 -3 -14 -10 -43 -16 -65 -25 -89 -45 -176 -60 -250 -17 -92
-19 -100 -24 -155 -3 -30 -8 -66 -11 -80 -10 -44 -12 -382 -3 -465 5 -44 11
-93 13 -110 8 -71 60 -275 84 -329 17 -38 24 -45 62 -54 24 -6 94 -25 154 -42
61 -16 128 -34 150 -39 22 -5 65 -16 95 -25 123 -35 250 -69 342 -91 53 -12
116 -30 140 -38 48 -17 269 -77 308 -83 14 -3 36 -9 50 -14 14 -5 34 -11 45
-13 11 -2 45 -11 76 -21 31 -9 65 -18 75 -20 35 -8 347 -91 489 -131 50 -14
149 -41 220 -60 139 -36 292 -78 365 -99 31 -9 52 -10 66 -4 12 6 73 63 135
128 124 128 141 147 160 181 6 13 20 32 31 43 11 12 27 35 35 51 9 17 27 44
39 61 13 17 24 36 24 42 0 6 4 12 8 14 16 6 136 253 180 368 43 115 61 167 78
225 18 64 21 77 22 85 0 3 6 19 12 35 10 25 49 209 67 310 28 166 38 499 18
655 -19 151 -75 391 -96 415 -5 5 -9 16 -9 24 0 21 -124 264 -162 317 -18 25
-52 66 -75 92 -23 26 -43 52 -43 59 0 6 -4 13 -9 15 -5 2 -38 30 -73 63 -35
33 -79 71 -97 85 -19 14 -43 33 -55 43 -11 11 -34 26 -51 34 -16 9 -32 19 -35
23 -3 4 -25 17 -50 30 -25 12 -52 28 -60 35 -8 7 -35 21 -60 31 -25 9 -72 29
-105 44 -98 45 -247 93 -380 122 -86 18 -105 21 -205 33 -70 8 -349 11 -368 3z"/>
<path d="M4546 6395 c-3 -8 -1 -15 4 -15 5 0 11 -8 14 -18 5 -16 58 -79 124
-147 41 -43 120 -113 187 -166 160 -128 240 -247 276 -412 30 -138 28 -244 -9
-397 -12 -47 -31 -130 -43 -185 -11 -55 -30 -134 -41 -175 -11 -41 -23 -91
-28 -110 -5 -19 -15 -62 -23 -94 -8 -33 -13 -65 -11 -71 5 -13 117 -48 189
-60 22 -4 45 -10 50 -15 6 -4 31 -11 57 -14 26 -4 50 -11 53 -16 9 -15 42 1
54 27 7 14 14 45 18 69 3 24 10 44 16 44 6 0 8 3 4 6 -3 3 1 27 9 52 8 26 17
56 19 67 8 34 36 129 46 150 4 11 25 72 45 135 93 294 145 379 312 507 77 59
221 116 322 128 79 9 207 34 265 52 165 50 226 77 209 92 -10 9 -135 49 -179
57 -5 1 -12 2 -15 3 -3 1 -54 15 -115 32 -60 17 -144 39 -185 51 -41 11 -91
24 -110 28 -37 9 -126 34 -250 70 -41 12 -91 24 -110 26 -19 3 -38 10 -42 17
-4 7 -8 9 -8 5 0 -4 -21 0 -47 8 -27 8 -68 19 -93 24 -57 12 -119 30 -145 41
-29 12 -186 49 -207 49 -10 0 -18 4 -18 8 0 4 -28 14 -62 21 -35 7 -76 18 -93
24 -34 13 -39 14 -80 23 -16 3 -37 8 -45 11 -8 3 -26 8 -40 10 -14 2 -45 10
-70 18 -25 8 -72 22 -105 30 -33 9 -67 18 -76 21 -9 2 -19 -2 -23 -11z"/>
<path d="M4906 4328 c-8 -13 -18 -36 -21 -53 -4 -16 -14 -46 -23 -65 -9 -19
-17 -37 -17 -40 -10 -41 -26 -83 -67 -175 -53 -121 -55 -149 -11 -158 31 -6
229 -57 253 -65 20 -7 18 -6 70 -21 25 -7 59 -17 76 -22 76 -23 94 1 94 122 0
37 5 71 10 74 6 3 10 23 10 44 0 22 9 83 20 136 29 140 29 141 -27 158 -27 9
-59 18 -73 20 -14 3 -74 19 -135 36 -132 37 -140 37 -159 9z"/>
<path d="M7220 4970 c-67 -23 -101 -44 -147 -89 -49 -47 -64 -74 -90 -161 -17
-58 -18 -73 -7 -137 15 -92 46 -153 106 -209 67 -63 146 -96 228 -97 66 -1 73
0 145 21 41 12 124 74 154 115 59 81 65 103 66 217 0 98 -2 109 -30 159 -89
161 -264 236 -425 181z"/>
</g>
</svg>
